<?xml version="1.0" encoding="utf-8" standalone="no"?>
<!DOCTYPE svg PUBLIC "-//W3C//DTD SVG 1.1//EN"
  "http://www.w3.org/Graphics/SVG/1.1/DTD/svg11.dtd">
<svg xmlns:xlink="http://www.w3.org/1999/xlink" width="346.180469pt" height="201.197344pt" viewBox="0 0 346.180469 201.197344" xmlns="http://www.w3.org/2000/svg" version="1.1">
 <metadata>
  <rdf:RDF xmlns:dc="http://purl.org/dc/elements/1.1/" xmlns:cc="http://creativecommons.org/ns#" xmlns:rdf="http://www.w3.org/1999/02/22-rdf-syntax-ns#">
   <cc:Work>
    <dc:type rdf:resource="http://purl.org/dc/dcmitype/StillImage"/>
    <dc:date>2024-11-01T16:44:49.669434</dc:date>
    <dc:format>image/svg+xml</dc:format>
    <dc:creator>
     <cc:Agent>
      <dc:title>Matplotlib v3.7.5, https://matplotlib.org/</dc:title>
     </cc:Agent>
    </dc:creator>
   </cc:Work>
  </rdf:RDF>
 </metadata>
 <defs>
  <style type="text/css">*{stroke-linejoin: round; stroke-linecap: butt}</style>
 </defs>
 <g id="figure_1">
  <g id="patch_1">
   <path d="M 0 201.197344 
L 346.180469 201.197344 
L 346.180469 0 
L 0 0 
z
" style="fill: #ffffff"/>
  </g>
  <g id="axes_1">
   <g id="patch_2">
    <path d="M 56.50625 177.319219 
L 335.50625 177.319219 
L 335.50625 10.999219 
L 56.50625 10.999219 
z
" style="fill: #ffffff"/>
   </g>
   <g id="matplotlib.axis_1">
    <g id="xtick_1">
     <g id="line2d_1">
      <defs>
       <path id="m85d2abe8cc" d="M 0 0 
L 0 3.5 
" style="stroke: #000000; stroke-width: 0.8"/>
      </defs>
      <g>
       <use xlink:href="#m85d2abe8cc" x="56.50625" y="177.319219" style="stroke: #000000; stroke-width: 0.8"/>
      </g>
     </g>
     <g id="text_1">
      <!-- $\Gamma$ -->
      <g transform="translate(53.70625 191.917656) scale(0.1 -0.1)">
       <defs>
        <path id="DejaVuSans-393" d="M 628 0 
L 628 4666 
L 3531 4666 
L 3531 4134 
L 1259 4134 
L 1259 0 
L 628 0 
z
" transform="scale(0.015625)"/>
       </defs>
       <use xlink:href="#DejaVuSans-393" transform="translate(0 0.09375)"/>
      </g>
     </g>
    </g>
    <g id="xtick_2">
     <g id="line2d_2">
      <g>
       <use xlink:href="#m85d2abe8cc" x="93.408679" y="177.319219" style="stroke: #000000; stroke-width: 0.8"/>
      </g>
     </g>
     <g id="text_2">
      <!-- X -->
      <g transform="translate(89.983679 191.917656) scale(0.1 -0.1)">
       <defs>
        <path id="DejaVuSans-58" d="M 403 4666 
L 1081 4666 
L 2241 2931 
L 3406 4666 
L 4084 4666 
L 2584 2425 
L 4184 0 
L 3506 0 
L 2194 1984 
L 872 0 
L 191 0 
L 1856 2491 
L 403 4666 
z
" transform="scale(0.015625)"/>
       </defs>
       <use xlink:href="#DejaVuSans-58"/>
      </g>
     </g>
    </g>
    <g id="xtick_3">
     <g id="line2d_3">
      <g>
       <use xlink:href="#m85d2abe8cc" x="130.311108" y="177.319219" style="stroke: #000000; stroke-width: 0.8"/>
      </g>
     </g>
     <g id="text_3">
      <!-- M -->
      <g transform="translate(125.997045 191.917656) scale(0.1 -0.1)">
       <defs>
        <path id="DejaVuSans-4d" d="M 628 4666 
L 1569 4666 
L 2759 1491 
L 3956 4666 
L 4897 4666 
L 4897 0 
L 4281 0 
L 4281 4097 
L 3078 897 
L 2444 897 
L 1241 4097 
L 1241 0 
L 628 0 
L 628 4666 
z
" transform="scale(0.015625)"/>
       </defs>
       <use xlink:href="#DejaVuSans-4d"/>
      </g>
     </g>
    </g>
    <g id="xtick_4">
     <g id="line2d_4">
      <g>
       <use xlink:href="#m85d2abe8cc" x="182.499024" y="177.319219" style="stroke: #000000; stroke-width: 0.8"/>
      </g>
     </g>
     <g id="text_4">
      <!-- $\Gamma$ -->
      <g transform="translate(179.699024 191.917656) scale(0.1 -0.1)">
       <use xlink:href="#DejaVuSans-393" transform="translate(0 0.09375)"/>
      </g>
     </g>
    </g>
    <g id="xtick_5">
     <g id="line2d_5">
      <g>
       <use xlink:href="#m85d2abe8cc" x="246.415905" y="177.319219" style="stroke: #000000; stroke-width: 0.8"/>
      </g>
     </g>
     <g id="text_5">
      <!-- R -->
      <g transform="translate(242.941687 191.917656) scale(0.1 -0.1)">
       <defs>
        <path id="DejaVuSans-52" d="M 2841 2188 
Q 3044 2119 3236 1894 
Q 3428 1669 3622 1275 
L 4263 0 
L 3584 0 
L 2988 1197 
Q 2756 1666 2539 1819 
Q 2322 1972 1947 1972 
L 1259 1972 
L 1259 0 
L 628 0 
L 628 4666 
L 2053 4666 
Q 2853 4666 3247 4331 
Q 3641 3997 3641 3322 
Q 3641 2881 3436 2590 
Q 3231 2300 2841 2188 
z
M 1259 4147 
L 1259 2491 
L 2053 2491 
Q 2509 2491 2742 2702 
Q 2975 2913 2975 3322 
Q 2975 3731 2742 3939 
Q 2509 4147 2053 4147 
L 1259 4147 
z
" transform="scale(0.015625)"/>
       </defs>
       <use xlink:href="#DejaVuSans-52"/>
      </g>
     </g>
    </g>
    <g id="xtick_6">
     <g id="line2d_6">
      <g>
       <use xlink:href="#m85d2abe8cc" x="298.603821" y="177.319219" style="stroke: #000000; stroke-width: 0.8"/>
      </g>
     </g>
     <g id="text_6">
      <!-- X,M -->
      <g transform="translate(289.275696 191.917656) scale(0.1 -0.1)">
       <defs>
        <path id="DejaVuSans-2c" d="M 750 794 
L 1409 794 
L 1409 256 
L 897 -744 
L 494 -744 
L 750 256 
L 750 794 
z
" transform="scale(0.015625)"/>
       </defs>
       <use xlink:href="#DejaVuSans-58"/>
       <use xlink:href="#DejaVuSans-2c" x="68.505859"/>
       <use xlink:href="#DejaVuSans-4d" x="100.292969"/>
      </g>
     </g>
    </g>
    <g id="xtick_7">
     <g id="line2d_7">
      <g>
       <use xlink:href="#m85d2abe8cc" x="335.50625" y="177.319219" style="stroke: #000000; stroke-width: 0.8"/>
      </g>
     </g>
     <g id="text_7">
      <!-- R -->
      <g transform="translate(332.032031 191.917656) scale(0.1 -0.1)">
       <use xlink:href="#DejaVuSans-52"/>
      </g>
     </g>
    </g>
   </g>
   <g id="matplotlib.axis_2">
    <g id="ytick_1">
     <g id="line2d_8">
      <defs>
       <path id="m4de166dab7" d="M 0 0 
L -3.5 0 
" style="stroke: #000000; stroke-width: 0.8"/>
      </defs>
      <g>
       <use xlink:href="#m4de166dab7" x="56.50625" y="177.319219" style="stroke: #000000; stroke-width: 0.8"/>
      </g>
     </g>
     <g id="text_8">
      <!-- 0.000 -->
      <g transform="translate(20.878125 181.118438) scale(0.1 -0.1)">
       <defs>
        <path id="DejaVuSans-30" d="M 2034 4250 
Q 1547 4250 1301 3770 
Q 1056 3291 1056 2328 
Q 1056 1369 1301 889 
Q 1547 409 2034 409 
Q 2525 409 2770 889 
Q 3016 1369 3016 2328 
Q 3016 3291 2770 3770 
Q 2525 4250 2034 4250 
z
M 2034 4750 
Q 2819 4750 3233 4129 
Q 3647 3509 3647 2328 
Q 3647 1150 3233 529 
Q 2819 -91 2034 -91 
Q 1250 -91 836 529 
Q 422 1150 422 2328 
Q 422 3509 836 4129 
Q 1250 4750 2034 4750 
z
" transform="scale(0.015625)"/>
        <path id="DejaVuSans-2e" d="M 684 794 
L 1344 794 
L 1344 0 
L 684 0 
L 684 794 
z
" transform="scale(0.015625)"/>
       </defs>
       <use xlink:href="#DejaVuSans-30"/>
       <use xlink:href="#DejaVuSans-2e" x="63.623047"/>
       <use xlink:href="#DejaVuSans-30" x="95.410156"/>
       <use xlink:href="#DejaVuSans-30" x="159.033203"/>
       <use xlink:href="#DejaVuSans-30" x="222.65625"/>
      </g>
     </g>
    </g>
    <g id="ytick_2">
     <g id="line2d_9">
      <g>
       <use xlink:href="#m4de166dab7" x="56.50625" y="149.599219" style="stroke: #000000; stroke-width: 0.8"/>
      </g>
     </g>
     <g id="text_9">
      <!-- 0.005 -->
      <g transform="translate(20.878125 153.398438) scale(0.1 -0.1)">
       <defs>
        <path id="DejaVuSans-35" d="M 691 4666 
L 3169 4666 
L 3169 4134 
L 1269 4134 
L 1269 2991 
Q 1406 3038 1543 3061 
Q 1681 3084 1819 3084 
Q 2600 3084 3056 2656 
Q 3513 2228 3513 1497 
Q 3513 744 3044 326 
Q 2575 -91 1722 -91 
Q 1428 -91 1123 -41 
Q 819 9 494 109 
L 494 744 
Q 775 591 1075 516 
Q 1375 441 1709 441 
Q 2250 441 2565 725 
Q 2881 1009 2881 1497 
Q 2881 1984 2565 2268 
Q 2250 2553 1709 2553 
Q 1456 2553 1204 2497 
Q 953 2441 691 2322 
L 691 4666 
z
" transform="scale(0.015625)"/>
       </defs>
       <use xlink:href="#DejaVuSans-30"/>
       <use xlink:href="#DejaVuSans-2e" x="63.623047"/>
       <use xlink:href="#DejaVuSans-30" x="95.410156"/>
       <use xlink:href="#DejaVuSans-30" x="159.033203"/>
       <use xlink:href="#DejaVuSans-35" x="222.65625"/>
      </g>
     </g>
    </g>
    <g id="ytick_3">
     <g id="line2d_10">
      <g>
       <use xlink:href="#m4de166dab7" x="56.50625" y="121.879219" style="stroke: #000000; stroke-width: 0.8"/>
      </g>
     </g>
     <g id="text_10">
      <!-- 0.010 -->
      <g transform="translate(20.878125 125.678438) scale(0.1 -0.1)">
       <defs>
        <path id="DejaVuSans-31" d="M 794 531 
L 1825 531 
L 1825 4091 
L 703 3866 
L 703 4441 
L 1819 4666 
L 2450 4666 
L 2450 531 
L 3481 531 
L 3481 0 
L 794 0 
L 794 531 
z
" transform="scale(0.015625)"/>
       </defs>
       <use xlink:href="#DejaVuSans-30"/>
       <use xlink:href="#DejaVuSans-2e" x="63.623047"/>
       <use xlink:href="#DejaVuSans-30" x="95.410156"/>
       <use xlink:href="#DejaVuSans-31" x="159.033203"/>
       <use xlink:href="#DejaVuSans-30" x="222.65625"/>
      </g>
     </g>
    </g>
    <g id="ytick_4">
     <g id="line2d_11">
      <g>
       <use xlink:href="#m4de166dab7" x="56.50625" y="94.159219" style="stroke: #000000; stroke-width: 0.8"/>
      </g>
     </g>
     <g id="text_11">
      <!-- 0.015 -->
      <g transform="translate(20.878125 97.958438) scale(0.1 -0.1)">
       <use xlink:href="#DejaVuSans-30"/>
       <use xlink:href="#DejaVuSans-2e" x="63.623047"/>
       <use xlink:href="#DejaVuSans-30" x="95.410156"/>
       <use xlink:href="#DejaVuSans-31" x="159.033203"/>
       <use xlink:href="#DejaVuSans-35" x="222.65625"/>
      </g>
     </g>
    </g>
    <g id="ytick_5">
     <g id="line2d_12">
      <g>
       <use xlink:href="#m4de166dab7" x="56.50625" y="66.439219" style="stroke: #000000; stroke-width: 0.8"/>
      </g>
     </g>
     <g id="text_12">
      <!-- 0.020 -->
      <g transform="translate(20.878125 70.238438) scale(0.1 -0.1)">
       <defs>
        <path id="DejaVuSans-32" d="M 1228 531 
L 3431 531 
L 3431 0 
L 469 0 
L 469 531 
Q 828 903 1448 1529 
Q 2069 2156 2228 2338 
Q 2531 2678 2651 2914 
Q 2772 3150 2772 3378 
Q 2772 3750 2511 3984 
Q 2250 4219 1831 4219 
Q 1534 4219 1204 4116 
Q 875 4013 500 3803 
L 500 4441 
Q 881 4594 1212 4672 
Q 1544 4750 1819 4750 
Q 2544 4750 2975 4387 
Q 3406 4025 3406 3419 
Q 3406 3131 3298 2873 
Q 3191 2616 2906 2266 
Q 2828 2175 2409 1742 
Q 1991 1309 1228 531 
z
" transform="scale(0.015625)"/>
       </defs>
       <use xlink:href="#DejaVuSans-30"/>
       <use xlink:href="#DejaVuSans-2e" x="63.623047"/>
       <use xlink:href="#DejaVuSans-30" x="95.410156"/>
       <use xlink:href="#DejaVuSans-32" x="159.033203"/>
       <use xlink:href="#DejaVuSans-30" x="222.65625"/>
      </g>
     </g>
    </g>
    <g id="ytick_6">
     <g id="line2d_13">
      <g>
       <use xlink:href="#m4de166dab7" x="56.50625" y="38.719219" style="stroke: #000000; stroke-width: 0.8"/>
      </g>
     </g>
     <g id="text_13">
      <!-- 0.025 -->
      <g transform="translate(20.878125 42.518438) scale(0.1 -0.1)">
       <use xlink:href="#DejaVuSans-30"/>
       <use xlink:href="#DejaVuSans-2e" x="63.623047"/>
       <use xlink:href="#DejaVuSans-30" x="95.410156"/>
       <use xlink:href="#DejaVuSans-32" x="159.033203"/>
       <use xlink:href="#DejaVuSans-35" x="222.65625"/>
      </g>
     </g>
    </g>
    <g id="ytick_7">
     <g id="line2d_14">
      <g>
       <use xlink:href="#m4de166dab7" x="56.50625" y="10.999219" style="stroke: #000000; stroke-width: 0.8"/>
      </g>
     </g>
     <g id="text_14">
      <!-- 0.030 -->
      <g transform="translate(20.878125 14.798438) scale(0.1 -0.1)">
       <defs>
        <path id="DejaVuSans-33" d="M 2597 2516 
Q 3050 2419 3304 2112 
Q 3559 1806 3559 1356 
Q 3559 666 3084 287 
Q 2609 -91 1734 -91 
Q 1441 -91 1130 -33 
Q 819 25 488 141 
L 488 750 
Q 750 597 1062 519 
Q 1375 441 1716 441 
Q 2309 441 2620 675 
Q 2931 909 2931 1356 
Q 2931 1769 2642 2001 
Q 2353 2234 1838 2234 
L 1294 2234 
L 1294 2753 
L 1863 2753 
Q 2328 2753 2575 2939 
Q 2822 3125 2822 3475 
Q 2822 3834 2567 4026 
Q 2313 4219 1838 4219 
Q 1578 4219 1281 4162 
Q 984 4106 628 3988 
L 628 4550 
Q 988 4650 1302 4700 
Q 1616 4750 1894 4750 
Q 2613 4750 3031 4423 
Q 3450 4097 3450 3541 
Q 3450 3153 3228 2886 
Q 3006 2619 2597 2516 
z
" transform="scale(0.015625)"/>
       </defs>
       <use xlink:href="#DejaVuSans-30"/>
       <use xlink:href="#DejaVuSans-2e" x="63.623047"/>
       <use xlink:href="#DejaVuSans-30" x="95.410156"/>
       <use xlink:href="#DejaVuSans-33" x="159.033203"/>
       <use xlink:href="#DejaVuSans-30" x="222.65625"/>
      </g>
     </g>
    </g>
    <g id="text_15">
     <!-- energies [eV] -->
     <g transform="translate(14.798438 127.681094) rotate(-90) scale(0.1 -0.1)">
      <defs>
       <path id="DejaVuSans-65" d="M 3597 1894 
L 3597 1613 
L 953 1613 
Q 991 1019 1311 708 
Q 1631 397 2203 397 
Q 2534 397 2845 478 
Q 3156 559 3463 722 
L 3463 178 
Q 3153 47 2828 -22 
Q 2503 -91 2169 -91 
Q 1331 -91 842 396 
Q 353 884 353 1716 
Q 353 2575 817 3079 
Q 1281 3584 2069 3584 
Q 2775 3584 3186 3129 
Q 3597 2675 3597 1894 
z
M 3022 2063 
Q 3016 2534 2758 2815 
Q 2500 3097 2075 3097 
Q 1594 3097 1305 2825 
Q 1016 2553 972 2059 
L 3022 2063 
z
" transform="scale(0.015625)"/>
       <path id="DejaVuSans-6e" d="M 3513 2113 
L 3513 0 
L 2938 0 
L 2938 2094 
Q 2938 2591 2744 2837 
Q 2550 3084 2163 3084 
Q 1697 3084 1428 2787 
Q 1159 2491 1159 1978 
L 1159 0 
L 581 0 
L 581 3500 
L 1159 3500 
L 1159 2956 
Q 1366 3272 1645 3428 
Q 1925 3584 2291 3584 
Q 2894 3584 3203 3211 
Q 3513 2838 3513 2113 
z
" transform="scale(0.015625)"/>
       <path id="DejaVuSans-72" d="M 2631 2963 
Q 2534 3019 2420 3045 
Q 2306 3072 2169 3072 
Q 1681 3072 1420 2755 
Q 1159 2438 1159 1844 
L 1159 0 
L 581 0 
L 581 3500 
L 1159 3500 
L 1159 2956 
Q 1341 3275 1631 3429 
Q 1922 3584 2338 3584 
Q 2397 3584 2469 3576 
Q 2541 3569 2628 3553 
L 2631 2963 
z
" transform="scale(0.015625)"/>
       <path id="DejaVuSans-67" d="M 2906 1791 
Q 2906 2416 2648 2759 
Q 2391 3103 1925 3103 
Q 1463 3103 1205 2759 
Q 947 2416 947 1791 
Q 947 1169 1205 825 
Q 1463 481 1925 481 
Q 2391 481 2648 825 
Q 2906 1169 2906 1791 
z
M 3481 434 
Q 3481 -459 3084 -895 
Q 2688 -1331 1869 -1331 
Q 1566 -1331 1297 -1286 
Q 1028 -1241 775 -1147 
L 775 -588 
Q 1028 -725 1275 -790 
Q 1522 -856 1778 -856 
Q 2344 -856 2625 -561 
Q 2906 -266 2906 331 
L 2906 616 
Q 2728 306 2450 153 
Q 2172 0 1784 0 
Q 1141 0 747 490 
Q 353 981 353 1791 
Q 353 2603 747 3093 
Q 1141 3584 1784 3584 
Q 2172 3584 2450 3431 
Q 2728 3278 2906 2969 
L 2906 3500 
L 3481 3500 
L 3481 434 
z
" transform="scale(0.015625)"/>
       <path id="DejaVuSans-69" d="M 603 3500 
L 1178 3500 
L 1178 0 
L 603 0 
L 603 3500 
z
M 603 4863 
L 1178 4863 
L 1178 4134 
L 603 4134 
L 603 4863 
z
" transform="scale(0.015625)"/>
       <path id="DejaVuSans-73" d="M 2834 3397 
L 2834 2853 
Q 2591 2978 2328 3040 
Q 2066 3103 1784 3103 
Q 1356 3103 1142 2972 
Q 928 2841 928 2578 
Q 928 2378 1081 2264 
Q 1234 2150 1697 2047 
L 1894 2003 
Q 2506 1872 2764 1633 
Q 3022 1394 3022 966 
Q 3022 478 2636 193 
Q 2250 -91 1575 -91 
Q 1294 -91 989 -36 
Q 684 19 347 128 
L 347 722 
Q 666 556 975 473 
Q 1284 391 1588 391 
Q 1994 391 2212 530 
Q 2431 669 2431 922 
Q 2431 1156 2273 1281 
Q 2116 1406 1581 1522 
L 1381 1569 
Q 847 1681 609 1914 
Q 372 2147 372 2553 
Q 372 3047 722 3315 
Q 1072 3584 1716 3584 
Q 2034 3584 2315 3537 
Q 2597 3491 2834 3397 
z
" transform="scale(0.015625)"/>
       <path id="DejaVuSans-20" transform="scale(0.015625)"/>
       <path id="DejaVuSans-5b" d="M 550 4863 
L 1875 4863 
L 1875 4416 
L 1125 4416 
L 1125 -397 
L 1875 -397 
L 1875 -844 
L 550 -844 
L 550 4863 
z
" transform="scale(0.015625)"/>
       <path id="DejaVuSans-56" d="M 1831 0 
L 50 4666 
L 709 4666 
L 2188 738 
L 3669 4666 
L 4325 4666 
L 2547 0 
L 1831 0 
z
" transform="scale(0.015625)"/>
       <path id="DejaVuSans-5d" d="M 1947 4863 
L 1947 -844 
L 622 -844 
L 622 -397 
L 1369 -397 
L 1369 4416 
L 622 4416 
L 622 4863 
L 1947 4863 
z
" transform="scale(0.015625)"/>
      </defs>
      <use xlink:href="#DejaVuSans-65"/>
      <use xlink:href="#DejaVuSans-6e" x="61.523438"/>
      <use xlink:href="#DejaVuSans-65" x="124.902344"/>
      <use xlink:href="#DejaVuSans-72" x="186.425781"/>
      <use xlink:href="#DejaVuSans-67" x="225.789062"/>
      <use xlink:href="#DejaVuSans-69" x="289.265625"/>
      <use xlink:href="#DejaVuSans-65" x="317.048828"/>
      <use xlink:href="#DejaVuSans-73" x="378.572266"/>
      <use xlink:href="#DejaVuSans-20" x="430.671875"/>
      <use xlink:href="#DejaVuSans-5b" x="462.458984"/>
      <use xlink:href="#DejaVuSans-65" x="501.472656"/>
      <use xlink:href="#DejaVuSans-56" x="562.996094"/>
      <use xlink:href="#DejaVuSans-5d" x="631.404297"/>
     </g>
    </g>
   </g>
   <g id="line2d_15">
    <path d="M 93.408679 177.319219 
L 93.408679 10.999219 
" clip-path="url(#pf60286537b)" style="fill: none; stroke: #808080; stroke-width: 1.5; stroke-linecap: square"/>
   </g>
   <g id="line2d_16">
    <path d="M 130.311108 177.319219 
L 130.311108 10.999219 
" clip-path="url(#pf60286537b)" style="fill: none; stroke: #808080; stroke-width: 1.5; stroke-linecap: square"/>
   </g>
   <g id="line2d_17">
    <path d="M 182.499024 177.319219 
L 182.499024 10.999219 
" clip-path="url(#pf60286537b)" style="fill: none; stroke: #808080; stroke-width: 1.5; stroke-linecap: square"/>
   </g>
   <g id="line2d_18">
    <path d="M 246.415905 177.319219 
L 246.415905 10.999219 
" clip-path="url(#pf60286537b)" style="fill: none; stroke: #808080; stroke-width: 1.5; stroke-linecap: square"/>
   </g>
   <g id="line2d_19">
    <path d="M 298.603821 177.319219 
L 298.603821 10.999219 
" clip-path="url(#pf60286537b)" style="fill: none; stroke: #808080; stroke-width: 1.5; stroke-linecap: square"/>
   </g>
   <g id="line2d_20">
    <path d="M 56.50625 177.319219 
L 335.50625 177.319219 
" clip-path="url(#pf60286537b)" style="fill: none; stroke-dasharray: 1.5,2.475; stroke-dashoffset: 0; stroke: #000000; stroke-width: 1.5"/>
   </g>
   <g id="line2d_21">
    <path d="M 56.50625 177.319218 
L 66.83893 153.297163 
L 72.743319 140.051918 
L 77.17161 130.519061 
L 81.599902 121.427751 
L 86.028193 112.85957 
L 90.456485 104.889321 
L 93.408679 99.941627 
L 94.828003 100.040853 
L 96.247327 100.331634 
L 97.666652 100.794706 
L 100.5053 102.121133 
L 104.763273 104.62199 
L 109.021245 107.048475 
L 111.859893 108.331 
L 113.279218 108.821646 
L 114.698542 109.194538 
L 116.117866 109.439252 
L 117.53719 109.547478 
L 118.956514 109.513067 
L 120.375839 109.332065 
L 121.795163 109.002702 
L 123.214487 108.525351 
L 124.633811 107.902417 
L 126.053135 107.138193 
L 128.891784 105.211306 
L 130.311108 104.064808 
L 135.953045 111.022623 
L 141.594982 118.330472 
L 148.647403 127.872265 
L 155.699824 137.777153 
L 164.162729 150.024332 
L 175.446603 166.752307 
L 182.499024 177.319218 
L 192.225506 159.744398 
L 197.783495 150.120428 
L 201.951988 143.249757 
L 206.12048 136.759662 
L 210.288972 130.718129 
L 214.457464 125.186267 
L 217.236459 121.808379 
L 220.015454 118.695156 
L 222.794449 115.859203 
L 225.573444 113.311658 
L 228.352439 111.062237 
L 231.131434 109.119272 
L 233.910429 107.489769 
L 236.689423 106.179457 
L 239.468418 105.192847 
L 242.247413 104.533276 
L 245.026408 104.202943 
L 260.149567 103.694078 
L 268.389765 103.02702 
L 278.003328 101.986462 
L 294.483722 100.084333 
L 298.603821 99.941627 
L 298.603821 104.064808 
L 335.50625 104.161626 
L 335.50625 104.161626 
" clip-path="url(#pf60286537b)" style="fill: none; stroke: #008000; stroke-width: 1.5; stroke-linecap: square"/>
   </g>
   <g id="line2d_22">
    <path d="M 56.50625 177.319217 
L 66.83893 153.297163 
L 72.743319 140.051918 
L 77.17161 130.519061 
L 81.599902 121.427751 
L 86.028193 112.85957 
L 90.456485 104.889321 
L 93.408679 99.941627 
L 94.828003 100.040853 
L 96.247327 100.331634 
L 97.666652 100.794706 
L 100.5053 102.121133 
L 104.763273 104.62199 
L 109.021245 107.048475 
L 111.859893 108.331 
L 113.279218 108.821646 
L 114.698542 109.194538 
L 116.117866 109.439252 
L 117.53719 109.547478 
L 118.956514 109.513067 
L 120.375839 109.332065 
L 121.795163 109.002702 
L 123.214487 108.525351 
L 124.633811 107.902417 
L 126.053135 107.138193 
L 128.891784 105.211306 
L 130.311108 104.064808 
L 131.721592 103.943999 
L 133.132076 103.584302 
L 134.542561 102.993758 
L 135.953045 102.185316 
L 137.363529 101.176196 
L 138.774013 99.987124 
L 141.594982 97.164457 
L 144.41595 93.921306 
L 145.826434 95.434969 
L 151.468371 107.038521 
L 157.110308 119.140048 
L 164.162729 134.828684 
L 172.625634 154.243525 
L 182.499024 177.319217 
L 192.225506 159.744398 
L 197.783495 150.120428 
L 201.951988 143.249757 
L 206.12048 136.759662 
L 210.288972 130.718129 
L 214.457464 125.186267 
L 217.236459 121.808379 
L 220.015454 118.695156 
L 222.794449 115.859203 
L 225.573444 113.311658 
L 228.352439 111.062237 
L 231.131434 109.119272 
L 233.910429 107.489769 
L 236.689423 106.179457 
L 239.468418 105.192847 
L 242.247413 104.533276 
L 245.026408 104.202943 
L 260.149567 103.694078 
L 268.389765 103.02702 
L 278.003328 101.986462 
L 294.483722 100.084333 
L 298.603821 99.941627 
L 298.603821 104.064808 
L 335.50625 104.161626 
L 335.50625 104.161626 
" clip-path="url(#pf60286537b)" style="fill: none; stroke: #008000; stroke-width: 1.5; stroke-linecap: square"/>
   </g>
   <g id="line2d_23">
    <path d="M 56.50625 177.319216 
L 71.267222 133.255919 
L 78.647707 111.809308 
L 84.552096 95.270627 
L 86.028193 91.255972 
L 87.50429 91.004705 
L 90.456485 95.307907 
L 93.408679 99.941627 
L 94.828003 99.866941 
L 96.247327 99.643612 
L 97.666652 99.273815 
L 99.085976 98.761094 
L 100.5053 98.110268 
L 103.343948 96.419095 
L 106.182597 94.258634 
L 109.021245 91.697395 
L 111.859893 88.808858 
L 113.279218 87.265089 
L 114.698542 86.697083 
L 123.214487 96.907647 
L 126.053135 100.011169 
L 128.891784 102.808876 
L 130.311108 104.064808 
L 131.721592 103.943999 
L 133.132076 103.584302 
L 134.542561 102.993758 
L 135.953045 102.185316 
L 137.363529 101.176196 
L 138.774013 99.987124 
L 141.594982 97.164457 
L 144.41595 93.921306 
L 152.878855 83.671978 
L 154.289339 87.028461 
L 157.110308 94.625584 
L 161.34176 106.838323 
L 165.573213 119.897471 
L 169.804666 133.643664 
L 175.446603 152.752479 
L 182.499024 177.319216 
L 193.615003 137.089528 
L 199.172993 117.713842 
L 204.730982 99.248206 
L 208.899475 86.196477 
L 210.288972 82.026438 
L 211.67847 82.314477 
L 217.236459 87.058497 
L 225.573444 94.206214 
L 229.741936 97.441807 
L 232.520931 99.352772 
L 235.299926 101.005247 
L 238.078921 102.350107 
L 240.857916 103.344642 
L 243.636911 103.955556 
L 246.415905 104.161626 
L 251.90937 104.044097 
L 257.402835 103.705303 
L 264.269666 103.032694 
L 288.990258 100.276562 
L 294.483722 100.004457 
L 298.603821 99.941627 
L 298.603821 104.064808 
L 335.50625 104.161626 
L 335.50625 104.161626 
" clip-path="url(#pf60286537b)" style="fill: none; stroke: #008000; stroke-width: 1.5; stroke-linecap: square"/>
   </g>
   <g id="line2d_24">
    <path d="M 56.50625 68.660827 
L 59.458444 68.869158 
L 62.410639 69.493547 
L 65.362833 70.532173 
L 68.315027 71.981987 
L 71.267222 73.838679 
L 74.219416 76.09665 
L 77.17161 78.748969 
L 80.123805 81.787328 
L 83.075999 85.202001 
L 86.028193 88.981794 
L 88.980388 93.114018 
L 91.932582 97.58445 
L 93.408679 99.941627 
L 94.828003 99.866941 
L 96.247327 99.643612 
L 97.666652 99.273815 
L 99.085976 98.761094 
L 100.5053 98.110268 
L 103.343948 96.419095 
L 106.182597 94.258634 
L 109.021245 91.697395 
L 111.859893 88.808858 
L 113.279218 87.265089 
L 114.698542 86.697083 
L 123.214487 96.907647 
L 126.053135 100.011169 
L 128.891784 102.808876 
L 130.311108 104.064808 
L 135.953045 97.520345 
L 140.184497 92.925061 
L 143.005466 90.02794 
L 144.41595 92.622398 
L 145.826434 92.207737 
L 152.878855 83.671978 
L 155.699824 80.622297 
L 158.520792 77.925868 
L 161.34176 75.618404 
L 164.162729 73.699841 
L 166.983697 72.185159 
L 169.804666 71.030186 
L 172.625634 70.099079 
L 175.446603 69.396533 
L 178.267571 68.926141 
L 181.088539 68.690332 
L 183.888521 68.695298 
L 186.667516 68.970504 
L 189.446511 69.517935 
L 192.225506 70.3316 
L 195.0045 71.402455 
L 197.783495 72.718329 
L 200.56249 74.263832 
L 203.341485 76.020232 
L 207.509977 79.000703 
L 211.67847 82.314477 
L 217.236459 87.058497 
L 225.573444 94.206214 
L 229.741936 97.441807 
L 232.520931 99.352772 
L 235.299926 101.005247 
L 238.078921 102.350107 
L 240.857916 103.344642 
L 243.636911 103.955556 
L 246.415905 104.161626 
L 251.90937 104.044097 
L 257.402835 103.705303 
L 264.269666 103.032694 
L 288.990258 100.276562 
L 294.483722 100.004457 
L 298.603821 99.941627 
L 298.603821 104.064808 
L 335.50625 104.161626 
L 335.50625 104.161626 
" clip-path="url(#pf60286537b)" style="fill: none; stroke: #008000; stroke-width: 1.5; stroke-linecap: square"/>
   </g>
   <g id="line2d_25">
    <path d="M 56.50625 68.660827 
L 59.458444 68.869158 
L 62.410639 69.493547 
L 65.362833 70.532173 
L 68.315027 71.981987 
L 71.267222 73.838679 
L 74.219416 76.09665 
L 77.17161 78.748969 
L 80.123805 81.787328 
L 83.075999 85.202001 
L 86.028193 88.981794 
L 87.50429 87.298725 
L 91.932582 75.822653 
L 93.408679 72.147021 
L 94.828003 72.029219 
L 96.247327 71.682243 
L 97.666652 71.123947 
L 99.085976 71.542496 
L 100.5053 72.380752 
L 101.924624 73.371326 
L 104.763273 75.747187 
L 107.601921 78.548369 
L 110.440569 81.662366 
L 113.279218 84.986453 
L 114.698542 85.66716 
L 118.956514 80.635457 
L 130.311108 66.80762 
L 134.542561 74.074983 
L 138.774013 81.766317 
L 143.005466 89.847904 
L 145.826434 87.275103 
L 150.057887 83.437603 
L 151.468371 82.241086 
L 152.878855 83.409098 
L 154.289339 82.106879 
L 157.110308 79.226729 
L 159.931276 76.722815 
L 162.752245 74.611585 
L 165.573213 72.879598 
L 168.394181 71.496277 
L 171.21515 70.425029 
L 174.036118 69.630908 
L 176.857087 69.084888 
L 179.678055 68.765781 
L 182.499024 68.660827 
L 185.278018 68.798617 
L 188.057013 69.210495 
L 190.836008 69.891981 
L 193.615003 70.835565 
L 196.393998 72.03065 
L 199.172993 73.463468 
L 201.951988 75.116974 
L 204.730982 76.97072 
L 208.899475 80.073276 
L 213.067967 83.474724 
L 228.352439 96.40578 
L 231.131434 98.426361 
L 233.910429 100.214506 
L 236.689423 101.718984 
L 239.468418 102.893501 
L 242.247413 103.699688 
L 245.026408 104.109993 
L 247.789272 104.113534 
L 250.536004 103.73051 
L 253.282736 102.973476 
L 256.029469 101.859866 
L 258.776201 100.414484 
L 261.522934 98.668172 
L 264.269666 96.656448 
L 267.016398 94.418303 
L 271.136497 90.728188 
L 276.629962 85.423319 
L 283.496793 78.753392 
L 286.243525 76.280019 
L 288.990258 74.049064 
L 291.73699 72.178437 
L 293.110356 71.421384 
L 294.483722 71.162935 
L 295.857089 71.706417 
L 297.230455 72.036374 
L 298.603821 72.147021 
L 298.603821 66.80762 
L 300.023145 67.056607 
L 301.442469 67.775177 
L 302.861794 68.892276 
L 304.281118 70.322532 
L 307.119766 73.822785 
L 309.958415 77.817634 
L 319.893684 92.26779 
L 322.732332 95.866158 
L 325.570981 98.967881 
L 326.990305 100.290351 
L 328.409629 101.439575 
L 329.828953 102.401383 
L 331.248277 103.163371 
L 332.667602 103.715334 
L 334.086926 104.049654 
L 335.50625 104.161626 
L 335.50625 104.161626 
" clip-path="url(#pf60286537b)" style="fill: none; stroke: #008000; stroke-width: 1.5; stroke-linecap: square"/>
   </g>
   <g id="line2d_26">
    <path d="M 56.50625 68.660827 
L 63.886736 68.786286 
L 72.743319 69.195654 
L 86.028193 69.855069 
L 91.932582 69.976683 
L 93.408679 72.147021 
L 94.828003 72.029219 
L 96.247327 71.682243 
L 97.666652 71.123947 
L 99.085976 71.542496 
L 100.5053 72.380752 
L 101.924624 73.371326 
L 104.763273 75.747187 
L 107.601921 78.548369 
L 110.440569 81.662366 
L 113.279218 84.986453 
L 114.698542 85.66716 
L 118.956514 80.635457 
L 130.311108 66.80762 
L 138.774013 66.924361 
L 144.41595 67.119845 
L 145.826434 67.294734 
L 148.647403 73.326195 
L 151.468371 79.91582 
L 152.878855 81.087891 
L 157.110308 77.899928 
L 159.931276 76.012245 
L 162.752245 74.324609 
L 166.983697 72.146608 
L 169.804666 70.923931 
L 172.625634 69.995312 
L 175.446603 69.328404 
L 178.267571 68.897968 
L 181.088539 68.686999 
L 183.888521 68.695298 
L 186.667516 68.970504 
L 189.446511 69.517935 
L 192.225506 70.3316 
L 195.0045 71.402455 
L 197.783495 72.718329 
L 200.56249 74.263832 
L 203.341485 76.020232 
L 207.509977 79.000703 
L 210.288972 81.179223 
L 211.67847 77.955746 
L 214.457464 70.134249 
L 215.846962 69.974073 
L 218.625957 73.361318 
L 221.404952 77.206677 
L 226.962941 85.540778 
L 231.131434 91.680992 
L 233.910429 95.411226 
L 236.689423 98.659473 
L 238.078921 100.053147 
L 239.468418 101.268354 
L 240.857916 102.288278 
L 242.247413 103.098163 
L 243.636911 103.685837 
L 245.026408 104.042202 
L 246.415905 104.161626 
L 249.162638 103.969544 
L 251.90937 103.397842 
L 254.656103 102.459851 
L 257.402835 101.176844 
L 260.149567 99.576819 
L 262.8963 97.693119 
L 265.643032 95.563132 
L 269.763131 91.995353 
L 273.883229 88.110961 
L 284.870159 77.4928 
L 287.616891 75.127461 
L 290.363624 73.060374 
L 293.110356 71.421384 
L 294.483722 71.162935 
L 295.857089 71.706417 
L 297.230455 72.036374 
L 298.603821 72.147021 
L 298.603821 66.80762 
L 300.023145 67.056607 
L 301.442469 67.775177 
L 302.861794 68.892276 
L 304.281118 70.322532 
L 307.119766 73.822785 
L 309.958415 77.817634 
L 319.893684 92.26779 
L 322.732332 95.866158 
L 325.570981 98.967881 
L 326.990305 100.290351 
L 328.409629 101.439575 
L 329.828953 102.401383 
L 331.248277 103.163371 
L 332.667602 103.715334 
L 334.086926 104.049654 
L 335.50625 104.161626 
L 335.50625 104.161626 
" clip-path="url(#pf60286537b)" style="fill: none; stroke: #008000; stroke-width: 1.5; stroke-linecap: square"/>
   </g>
   <g id="line2d_27">
    <path d="M 56.50625 68.660827 
L 63.886736 68.786286 
L 72.743319 69.195654 
L 86.028193 69.855069 
L 94.828003 70.082356 
L 96.247327 70.381219 
L 97.666652 70.871515 
L 99.085976 70.380037 
L 101.924624 68.452855 
L 104.763273 66.124697 
L 109.021245 62.259987 
L 116.117866 55.723112 
L 117.53719 54.478084 
L 118.956514 54.725915 
L 121.795163 57.460178 
L 126.053135 61.946002 
L 130.311108 66.80762 
L 138.774013 66.924361 
L 148.647403 67.313952 
L 175.446603 68.577901 
L 182.499024 68.660827 
L 185.278018 68.518707 
L 188.057013 68.104149 
L 190.836008 67.452948 
L 195.0045 66.173816 
L 199.172993 64.836591 
L 201.951988 64.15555 
L 203.341485 63.948815 
L 204.730982 63.866937 
L 206.12048 63.936878 
L 207.509977 64.183466 
L 208.899475 64.626962 
L 210.288972 65.280755 
L 211.67847 66.149812 
L 213.067967 67.230374 
L 214.457464 68.510932 
L 215.846962 69.974073 
L 218.625957 73.361318 
L 221.404952 77.206677 
L 226.962941 85.540778 
L 231.131434 91.680992 
L 233.910429 95.411226 
L 236.689423 98.659473 
L 238.078921 100.053147 
L 239.468418 101.268354 
L 240.857916 102.288278 
L 242.247413 103.098163 
L 243.636911 103.685837 
L 245.026408 104.042202 
L 246.415905 104.161626 
L 247.789272 104.011675 
L 249.162638 103.564667 
L 250.536004 102.828965 
L 251.90937 101.817941 
L 253.282736 100.549216 
L 254.656103 99.043748 
L 256.029469 97.324867 
L 258.776201 93.34661 
L 261.522934 88.816403 
L 265.643032 81.406284 
L 273.883229 66.353878 
L 276.629962 61.730133 
L 279.376694 57.463855 
L 280.75006 56.876973 
L 283.496793 60.642045 
L 286.243525 64.085022 
L 288.990258 67.073663 
L 290.363624 68.355801 
L 291.73699 69.47472 
L 293.110356 70.415075 
L 294.483722 70.807581 
L 295.857089 70.354284 
L 297.230455 70.075862 
L 298.603821 69.981924 
L 298.603821 66.80762 
L 300.023145 67.056607 
L 301.442469 67.775177 
L 302.861794 68.892276 
L 304.281118 70.322532 
L 307.119766 73.822785 
L 309.958415 77.817634 
L 319.893684 92.26779 
L 322.732332 95.866158 
L 325.570981 98.967881 
L 326.990305 100.290351 
L 328.409629 101.439575 
L 329.828953 102.401383 
L 331.248277 103.163371 
L 332.667602 103.715334 
L 334.086926 104.049654 
L 335.50625 104.161626 
L 335.50625 104.161626 
" clip-path="url(#pf60286537b)" style="fill: none; stroke: #008000; stroke-width: 1.5; stroke-linecap: square"/>
   </g>
   <g id="line2d_28">
    <path d="M 56.50625 68.660827 
L 57.982347 68.601391 
L 59.458444 68.423544 
L 60.934541 68.128653 
L 63.886736 67.197583 
L 66.83893 65.835913 
L 69.791124 64.08271 
L 72.743319 61.985818 
L 75.695513 59.599073 
L 80.123805 55.600812 
L 83.075999 52.741023 
L 84.552096 52.058531 
L 87.50429 58.342209 
L 90.456485 65.05367 
L 91.932582 68.555471 
L 93.408679 69.981924 
L 94.828003 70.082356 
L 96.247327 70.381219 
L 97.666652 70.871515 
L 99.085976 70.380037 
L 101.924624 68.452855 
L 104.763273 66.124697 
L 109.021245 62.259987 
L 116.117866 55.723112 
L 117.53719 54.478084 
L 118.956514 54.725915 
L 121.795163 57.460178 
L 126.053135 61.946002 
L 130.311108 66.80762 
L 134.542561 59.995775 
L 137.363529 55.722054 
L 138.774013 54.851972 
L 141.594982 59.361235 
L 144.41595 64.498244 
L 145.826434 67.180715 
L 161.34176 68.001964 
L 172.625634 68.500686 
L 181.088539 68.657461 
L 183.888521 68.625113 
L 186.667516 68.343818 
L 189.446511 67.804925 
L 192.225506 67.056662 
L 201.951988 64.15555 
L 203.341485 63.948815 
L 204.730982 63.866937 
L 206.12048 63.936878 
L 207.509977 64.183466 
L 208.899475 64.626962 
L 210.288972 65.280755 
L 211.67847 66.149812 
L 213.067967 67.230374 
L 214.457464 68.510932 
L 215.846962 69.974073 
L 218.625957 73.361318 
L 221.404952 77.206677 
L 226.962941 85.540778 
L 231.131434 91.680992 
L 233.910429 95.411226 
L 236.689423 98.659473 
L 238.078921 100.053147 
L 239.468418 101.268354 
L 240.857916 102.288278 
L 242.247413 103.098163 
L 243.636911 103.685837 
L 245.026408 104.042202 
L 246.415905 104.161626 
L 247.789272 104.011675 
L 249.162638 103.564667 
L 250.536004 102.828965 
L 251.90937 101.817941 
L 253.282736 100.549216 
L 254.656103 99.043748 
L 256.029469 97.324867 
L 258.776201 93.34661 
L 261.522934 88.816403 
L 265.643032 81.406284 
L 273.883229 66.353878 
L 276.629962 61.730133 
L 279.376694 57.463855 
L 280.75006 56.876973 
L 283.496793 60.642045 
L 286.243525 64.085022 
L 288.990258 67.073663 
L 290.363624 68.355801 
L 291.73699 69.47472 
L 293.110356 70.415075 
L 294.483722 70.807581 
L 295.857089 70.354284 
L 297.230455 70.075862 
L 298.603821 69.981924 
L 298.603821 66.80762 
L 300.023145 67.056607 
L 301.442469 67.775177 
L 302.861794 68.892276 
L 304.281118 70.322532 
L 307.119766 73.822785 
L 309.958415 77.817634 
L 319.893684 92.26779 
L 322.732332 95.866158 
L 325.570981 98.967881 
L 326.990305 100.290351 
L 328.409629 101.439575 
L 329.828953 102.401383 
L 331.248277 103.163371 
L 332.667602 103.715334 
L 334.086926 104.049654 
L 335.50625 104.161626 
L 335.50625 104.161626 
" clip-path="url(#pf60286537b)" style="fill: none; stroke: #008000; stroke-width: 1.5; stroke-linecap: square"/>
   </g>
   <g id="line2d_29">
    <path d="M 56.50625 68.660827 
L 57.982347 68.601391 
L 59.458444 68.423544 
L 60.934541 68.128653 
L 63.886736 67.197583 
L 66.83893 65.835913 
L 69.791124 64.08271 
L 72.743319 61.985818 
L 75.695513 59.599073 
L 80.123805 55.600812 
L 86.028193 49.791552 
L 93.408679 42.365279 
L 96.247327 42.524419 
L 99.085976 43.000907 
L 101.924624 43.791924 
L 104.763273 44.892713 
L 107.601921 46.29648 
L 110.440569 47.994271 
L 113.279218 49.974794 
L 116.117866 52.224217 
L 117.53719 53.444688 
L 118.956514 53.267303 
L 123.214487 49.881852 
L 126.053135 47.864526 
L 128.891784 46.064249 
L 130.311108 45.250878 
L 131.721592 46.435451 
L 133.132076 47.786932 
L 134.542561 49.305152 
L 137.363529 52.838919 
L 138.774013 53.668468 
L 143.005466 47.851923 
L 145.826434 44.269587 
L 147.236918 43.420164 
L 150.057887 45.054723 
L 152.878855 47.099294 
L 155.699824 49.474998 
L 159.931276 53.459386 
L 166.983697 60.337114 
L 169.804666 62.831823 
L 172.625634 65.00275 
L 175.446603 66.741503 
L 176.857087 67.419371 
L 178.267571 67.956697 
L 179.678055 68.346015 
L 181.088539 68.581842 
L 182.499024 68.660827 
L 185.278018 68.518707 
L 188.057013 68.104149 
L 190.836008 67.452948 
L 195.0045 66.173816 
L 199.172993 64.836591 
L 201.951988 64.15555 
L 203.341485 63.948815 
L 204.730982 63.866937 
L 206.12048 63.936878 
L 207.509977 64.183466 
L 208.899475 64.626962 
L 210.288972 65.280755 
L 211.67847 66.149812 
L 213.067967 67.230374 
L 214.457464 68.510932 
L 215.846962 66.394333 
L 218.625957 59.283108 
L 221.404952 52.698524 
L 224.183947 46.681398 
L 226.962941 41.270417 
L 229.741936 36.501516 
L 232.520931 32.407275 
L 235.299926 29.016346 
L 236.689423 27.592377 
L 238.078921 26.352942 
L 239.468418 25.300302 
L 240.857916 24.436385 
L 242.247413 23.762785 
L 243.636911 23.280746 
L 245.026408 22.991164 
L 246.415905 22.894577 
L 247.789272 22.96408 
L 249.162638 23.172307 
L 250.536004 23.518412 
L 251.90937 24.000981 
L 253.282736 24.618034 
L 254.656103 25.367015 
L 257.402835 27.247672 
L 260.149567 29.610913 
L 262.8963 32.415196 
L 265.643032 35.609224 
L 268.389765 39.131663 
L 272.509863 44.871453 
L 279.376694 54.913484 
L 280.75006 55.488319 
L 283.496793 51.892544 
L 286.243525 48.815521 
L 288.990258 46.302033 
L 290.363624 45.267903 
L 291.73699 44.387033 
L 293.110356 43.662359 
L 294.483722 43.096265 
L 295.857089 42.690599 
L 297.230455 42.446674 
L 298.603821 42.365279 
L 298.603821 45.250878 
L 300.023145 45.049213 
L 301.442469 44.472165 
L 302.861794 43.589467 
L 304.281118 42.484278 
L 307.119766 39.892778 
L 314.216387 33.09857 
L 317.055036 30.67432 
L 319.893684 28.52863 
L 322.732332 26.699143 
L 325.570981 25.211181 
L 328.409629 24.082049 
L 331.248277 23.323357 
L 334.086926 22.94229 
L 335.50625 22.894577 
L 335.50625 22.894577 
" clip-path="url(#pf60286537b)" style="fill: none; stroke: #008000; stroke-width: 1.5; stroke-linecap: square"/>
   </g>
   <g id="line2d_30">
    <path d="M 56.50625 21.322795 
L 57.982347 21.413757 
L 59.458444 21.686436 
L 60.934541 22.140215 
L 62.410639 22.774067 
L 63.886736 23.586562 
L 65.362833 24.575874 
L 66.83893 25.739791 
L 68.315027 27.075726 
L 69.791124 28.580733 
L 72.743319 32.084452 
L 75.695513 36.220767 
L 78.647707 40.954874 
L 81.599902 46.248066 
L 83.075999 49.091351 
L 84.552096 51.274094 
L 93.408679 42.365279 
L 96.247327 42.524419 
L 99.085976 43.000907 
L 101.924624 43.791924 
L 104.763273 44.892713 
L 107.601921 46.29648 
L 110.440569 47.994271 
L 113.279218 49.974794 
L 116.117866 52.224217 
L 117.53719 53.444688 
L 118.956514 53.267303 
L 123.214487 49.881852 
L 126.053135 47.864526 
L 128.891784 46.064249 
L 130.311108 45.250878 
L 133.132076 45.155264 
L 135.953045 44.865577 
L 138.774013 44.373473 
L 141.594982 43.665843 
L 144.41595 42.726492 
L 145.826434 42.778184 
L 147.236918 42.569384 
L 148.647403 40.930782 
L 152.878855 38.392746 
L 155.699824 36.458798 
L 159.931276 33.236677 
L 166.983697 27.727044 
L 169.804666 25.767395 
L 172.625634 24.087873 
L 175.446603 22.762734 
L 178.267571 21.84816 
L 179.678055 21.557259 
L 181.088539 21.381556 
L 183.888521 21.371981 
L 186.667516 21.762689 
L 189.446511 22.528913 
L 192.225506 23.638495 
L 195.0045 25.03853 
L 199.172993 27.499634 
L 203.341485 30.005919 
L 206.12048 31.408077 
L 207.509977 31.955765 
L 208.899475 32.374091 
L 210.288972 32.650013 
L 211.67847 32.778255 
L 213.067967 32.761564 
L 214.457464 32.609682 
L 217.236459 31.962641 
L 220.015454 30.980247 
L 224.183947 29.180979 
L 229.741936 26.720169 
L 233.910429 25.1287 
L 236.689423 24.269966 
L 239.468418 23.605155 
L 242.247413 23.152461 
L 245.026408 22.923344 
L 247.789272 22.96408 
L 249.162638 23.172307 
L 250.536004 23.518412 
L 251.90937 24.000981 
L 253.282736 24.618034 
L 254.656103 25.367015 
L 257.402835 27.247672 
L 260.149567 29.610913 
L 262.8963 32.415196 
L 265.643032 35.609224 
L 268.389765 39.131663 
L 272.509863 44.871453 
L 279.376694 54.913484 
L 280.75006 55.488319 
L 283.496793 51.892544 
L 286.243525 48.815521 
L 288.990258 46.302033 
L 290.363624 45.267903 
L 291.73699 44.387033 
L 293.110356 43.662359 
L 294.483722 43.096265 
L 295.857089 42.690599 
L 297.230455 42.446674 
L 298.603821 42.365279 
L 298.603821 45.250878 
L 300.023145 45.049213 
L 301.442469 44.472165 
L 302.861794 43.589467 
L 304.281118 42.484278 
L 307.119766 39.892778 
L 314.216387 33.09857 
L 317.055036 30.67432 
L 319.893684 28.52863 
L 322.732332 26.699143 
L 325.570981 25.211181 
L 328.409629 24.082049 
L 331.248277 23.323357 
L 334.086926 22.94229 
L 335.50625 22.894577 
L 335.50625 22.894577 
" clip-path="url(#pf60286537b)" style="fill: none; stroke: #008000; stroke-width: 1.5; stroke-linecap: square"/>
   </g>
   <g id="line2d_31">
    <path d="M 56.50625 21.322795 
L 59.458444 21.474048 
L 62.410639 21.926634 
L 65.362833 22.677012 
L 68.315027 23.719204 
L 71.267222 25.044681 
L 74.219416 26.642213 
L 77.17161 28.497679 
L 80.123805 30.593842 
L 83.075999 32.910108 
L 87.50429 36.743193 
L 91.932582 40.917848 
L 93.408679 42.365279 
L 96.247327 42.25105 
L 100.5053 41.735316 
L 107.601921 40.690833 
L 110.440569 40.453656 
L 113.279218 40.406023 
L 116.117866 40.581708 
L 118.956514 41.001738 
L 121.795163 41.677476 
L 124.633811 42.61291 
L 127.47246 43.806232 
L 130.311108 45.250878 
L 133.132076 45.155264 
L 135.953045 44.865577 
L 138.774013 44.373473 
L 141.594982 43.665843 
L 144.41595 42.726492 
L 147.236918 41.539381 
L 150.057887 40.094 
L 152.878855 38.392746 
L 155.699824 36.458798 
L 159.931276 33.236677 
L 166.983697 27.727044 
L 169.804666 25.767395 
L 172.625634 24.087873 
L 175.446603 22.762734 
L 178.267571 21.84816 
L 179.678055 21.557259 
L 181.088539 21.381556 
L 183.888521 21.371981 
L 186.667516 21.762689 
L 189.446511 22.528913 
L 192.225506 23.638495 
L 195.0045 25.03853 
L 199.172993 27.499634 
L 203.341485 30.005919 
L 206.12048 31.408077 
L 207.509977 31.955765 
L 208.899475 32.374091 
L 210.288972 32.650013 
L 211.67847 32.778255 
L 213.067967 32.761564 
L 214.457464 32.609682 
L 217.236459 31.962641 
L 220.015454 30.980247 
L 224.183947 29.180979 
L 229.741936 26.720169 
L 233.910429 25.1287 
L 236.689423 24.269966 
L 239.468418 23.605155 
L 242.247413 23.152461 
L 245.026408 22.923344 
L 247.789272 22.914411 
L 250.536004 23.073024 
L 253.282736 23.389889 
L 256.029469 23.864222 
L 258.776201 24.494678 
L 262.8963 25.728168 
L 267.016398 27.295766 
L 271.136497 29.176243 
L 275.256596 31.333607 
L 280.75006 34.531216 
L 287.616891 38.631385 
L 290.363624 40.090498 
L 293.110356 41.286064 
L 295.857089 42.083439 
L 297.230455 42.294 
L 298.603821 42.365279 
L 298.603821 45.250878 
L 300.023145 45.049213 
L 301.442469 44.472165 
L 302.861794 43.589467 
L 304.281118 42.484278 
L 307.119766 39.892778 
L 314.216387 33.09857 
L 317.055036 30.67432 
L 319.893684 28.52863 
L 322.732332 26.699143 
L 325.570981 25.211181 
L 328.409629 24.082049 
L 331.248277 23.323357 
L 334.086926 22.94229 
L 335.50625 22.894577 
L 335.50625 22.894577 
" clip-path="url(#pf60286537b)" style="fill: none; stroke: #008000; stroke-width: 1.5; stroke-linecap: square"/>
   </g>
   <g id="line2d_32">
    <path d="M 56.50625 21.322795 
L 59.458444 21.474048 
L 62.410639 21.926634 
L 65.362833 22.677012 
L 68.315027 23.719204 
L 71.267222 25.044681 
L 74.219416 26.642213 
L 77.17161 28.497679 
L 80.123805 30.593842 
L 83.075999 32.910108 
L 87.50429 36.743193 
L 91.932582 40.917848 
L 93.408679 42.365279 
L 96.247327 42.25105 
L 100.5053 41.735316 
L 107.601921 40.690833 
L 110.440569 40.453656 
L 113.279218 40.406023 
L 116.117866 40.581708 
L 118.956514 41.001738 
L 121.795163 41.677476 
L 124.633811 42.61291 
L 127.47246 43.806232 
L 130.311108 45.250878 
L 131.721592 44.232916 
L 133.132076 43.380779 
L 134.542561 42.693177 
L 135.953045 42.168293 
L 137.363529 41.803765 
L 138.774013 41.596665 
L 140.184497 41.543482 
L 141.594982 41.6401 
L 143.005466 41.881784 
L 144.41595 42.263156 
L 145.826434 42.164771 
L 148.647403 40.849222 
L 154.289339 35.005265 
L 157.110308 32.427832 
L 159.931276 30.112523 
L 162.752245 28.062604 
L 165.573213 26.280844 
L 168.394181 24.769552 
L 171.21515 23.530611 
L 174.036118 22.565508 
L 176.857087 21.875368 
L 179.678055 21.460976 
L 182.499024 21.322795 
L 185.278018 21.519078 
L 188.057013 22.10044 
L 190.836008 23.043545 
L 193.615003 24.306472 
L 196.393998 25.823821 
L 204.730982 30.750347 
L 207.509977 31.955765 
L 208.899475 32.374091 
L 210.288972 32.650013 
L 211.67847 32.778255 
L 213.067967 32.761564 
L 214.457464 32.609682 
L 217.236459 31.962641 
L 220.015454 30.980247 
L 224.183947 29.180979 
L 229.741936 26.720169 
L 233.910429 25.1287 
L 236.689423 24.269966 
L 239.468418 23.605155 
L 242.247413 23.152461 
L 245.026408 22.923344 
L 247.789272 22.914411 
L 250.536004 23.073024 
L 253.282736 23.389889 
L 256.029469 23.864222 
L 258.776201 24.494678 
L 262.8963 25.728168 
L 267.016398 27.295766 
L 271.136497 29.176243 
L 275.256596 31.333607 
L 280.75006 34.531216 
L 287.616891 38.631385 
L 290.363624 40.090498 
L 293.110356 41.286064 
L 295.857089 42.083439 
L 297.230455 42.294 
L 298.603821 42.365279 
L 298.603821 45.250878 
L 300.023145 45.049213 
L 301.442469 44.472165 
L 302.861794 43.589467 
L 304.281118 42.484278 
L 307.119766 39.892778 
L 314.216387 33.09857 
L 317.055036 30.67432 
L 319.893684 28.52863 
L 322.732332 26.699143 
L 325.570981 25.211181 
L 328.409629 24.082049 
L 331.248277 23.323357 
L 334.086926 22.94229 
L 335.50625 22.894577 
L 335.50625 22.894577 
" clip-path="url(#pf60286537b)" style="fill: none; stroke: #008000; stroke-width: 1.5; stroke-linecap: square"/>
   </g>
   <g id="patch_3">
    <path d="M 56.50625 177.319219 
L 56.50625 10.999219 
" style="fill: none; stroke: #000000; stroke-width: 0.8; stroke-linejoin: miter; stroke-linecap: square"/>
   </g>
   <g id="patch_4">
    <path d="M 335.50625 177.319219 
L 335.50625 10.999219 
" style="fill: none; stroke: #000000; stroke-width: 0.8; stroke-linejoin: miter; stroke-linecap: square"/>
   </g>
   <g id="patch_5">
    <path d="M 56.50625 177.319219 
L 335.50625 177.319219 
" style="fill: none; stroke: #000000; stroke-width: 0.8; stroke-linejoin: miter; stroke-linecap: square"/>
   </g>
   <g id="patch_6">
    <path d="M 56.50625 10.999219 
L 335.50625 10.999219 
" style="fill: none; stroke: #000000; stroke-width: 0.8; stroke-linejoin: miter; stroke-linecap: square"/>
   </g>
  </g>
 </g>
 <defs>
  <clipPath id="pf60286537b">
   <rect x="56.50625" y="10.999219" width="279" height="166.32"/>
  </clipPath>
 </defs>
</svg>
