<?xml version="1.0" encoding="utf-8" standalone="no"?>
<!DOCTYPE svg PUBLIC "-//W3C//DTD SVG 1.1//EN"
  "http://www.w3.org/Graphics/SVG/1.1/DTD/svg11.dtd">
<svg xmlns:xlink="http://www.w3.org/1999/xlink" width="346.180469pt" height="201.197344pt" viewBox="0 0 346.180469 201.197344" xmlns="http://www.w3.org/2000/svg" version="1.1">
 <metadata>
  <rdf:RDF xmlns:dc="http://purl.org/dc/elements/1.1/" xmlns:cc="http://creativecommons.org/ns#" xmlns:rdf="http://www.w3.org/1999/02/22-rdf-syntax-ns#">
   <cc:Work>
    <dc:type rdf:resource="http://purl.org/dc/dcmitype/StillImage"/>
    <dc:date>2025-02-15T10:31:47.741063</dc:date>
    <dc:format>image/svg+xml</dc:format>
    <dc:creator>
     <cc:Agent>
      <dc:title>Matplotlib v3.9.4, https://matplotlib.org/</dc:title>
     </cc:Agent>
    </dc:creator>
   </cc:Work>
  </rdf:RDF>
 </metadata>
 <defs>
  <style type="text/css">*{stroke-linejoin: round; stroke-linecap: butt}</style>
 </defs>
 <g id="figure_1">
  <g id="patch_1">
   <path d="M 0 201.197344 
L 346.180469 201.197344 
L 346.180469 0 
L 0 0 
z
" style="fill: #ffffff"/>
  </g>
  <g id="axes_1">
   <g id="patch_2">
    <path d="M 56.50625 177.319219 
L 335.50625 177.319219 
L 335.50625 10.999219 
L 56.50625 10.999219 
z
" style="fill: #ffffff"/>
   </g>
   <g id="matplotlib.axis_1">
    <g id="xtick_1">
     <g id="line2d_1">
      <defs>
       <path id="m1a3ff42e33" d="M 0 0 
L 0 3.5 
" style="stroke: #000000; stroke-width: 0.8"/>
      </defs>
      <g>
       <use xlink:href="#m1a3ff42e33" x="56.50625" y="177.319219" style="stroke: #000000; stroke-width: 0.8"/>
      </g>
     </g>
     <g id="text_1">
      <!-- $\Gamma$ -->
      <g transform="translate(53.70625 191.917656) scale(0.1 -0.1)">
       <defs>
        <path id="DejaVuSans-393" d="M 628 0 
L 628 4666 
L 3531 4666 
L 3531 4134 
L 1259 4134 
L 1259 0 
L 628 0 
z
" transform="scale(0.015625)"/>
       </defs>
       <use xlink:href="#DejaVuSans-393" transform="translate(0 0.09375)"/>
      </g>
     </g>
    </g>
    <g id="xtick_2">
     <g id="line2d_2">
      <g>
       <use xlink:href="#m1a3ff42e33" x="93.408679" y="177.319219" style="stroke: #000000; stroke-width: 0.8"/>
      </g>
     </g>
     <g id="text_2">
      <!-- X -->
      <g transform="translate(89.983679 191.917656) scale(0.1 -0.1)">
       <defs>
        <path id="DejaVuSans-58" d="M 403 4666 
L 1081 4666 
L 2241 2931 
L 3406 4666 
L 4084 4666 
L 2584 2425 
L 4184 0 
L 3506 0 
L 2194 1984 
L 872 0 
L 191 0 
L 1856 2491 
L 403 4666 
z
" transform="scale(0.015625)"/>
       </defs>
       <use xlink:href="#DejaVuSans-58"/>
      </g>
     </g>
    </g>
    <g id="xtick_3">
     <g id="line2d_3">
      <g>
       <use xlink:href="#m1a3ff42e33" x="130.311108" y="177.319219" style="stroke: #000000; stroke-width: 0.8"/>
      </g>
     </g>
     <g id="text_3">
      <!-- M -->
      <g transform="translate(125.997045 191.917656) scale(0.1 -0.1)">
       <defs>
        <path id="DejaVuSans-4d" d="M 628 4666 
L 1569 4666 
L 2759 1491 
L 3956 4666 
L 4897 4666 
L 4897 0 
L 4281 0 
L 4281 4097 
L 3078 897 
L 2444 897 
L 1241 4097 
L 1241 0 
L 628 0 
L 628 4666 
z
" transform="scale(0.015625)"/>
       </defs>
       <use xlink:href="#DejaVuSans-4d"/>
      </g>
     </g>
    </g>
    <g id="xtick_4">
     <g id="line2d_4">
      <g>
       <use xlink:href="#m1a3ff42e33" x="182.499024" y="177.319219" style="stroke: #000000; stroke-width: 0.8"/>
      </g>
     </g>
     <g id="text_4">
      <!-- $\Gamma$ -->
      <g transform="translate(179.699024 191.917656) scale(0.1 -0.1)">
       <use xlink:href="#DejaVuSans-393" transform="translate(0 0.09375)"/>
      </g>
     </g>
    </g>
    <g id="xtick_5">
     <g id="line2d_5">
      <g>
       <use xlink:href="#m1a3ff42e33" x="246.415905" y="177.319219" style="stroke: #000000; stroke-width: 0.8"/>
      </g>
     </g>
     <g id="text_5">
      <!-- R -->
      <g transform="translate(242.941687 191.917656) scale(0.1 -0.1)">
       <defs>
        <path id="DejaVuSans-52" d="M 2841 2188 
Q 3044 2119 3236 1894 
Q 3428 1669 3622 1275 
L 4263 0 
L 3584 0 
L 2988 1197 
Q 2756 1666 2539 1819 
Q 2322 1972 1947 1972 
L 1259 1972 
L 1259 0 
L 628 0 
L 628 4666 
L 2053 4666 
Q 2853 4666 3247 4331 
Q 3641 3997 3641 3322 
Q 3641 2881 3436 2590 
Q 3231 2300 2841 2188 
z
M 1259 4147 
L 1259 2491 
L 2053 2491 
Q 2509 2491 2742 2702 
Q 2975 2913 2975 3322 
Q 2975 3731 2742 3939 
Q 2509 4147 2053 4147 
L 1259 4147 
z
" transform="scale(0.015625)"/>
       </defs>
       <use xlink:href="#DejaVuSans-52"/>
      </g>
     </g>
    </g>
    <g id="xtick_6">
     <g id="line2d_6">
      <g>
       <use xlink:href="#m1a3ff42e33" x="298.603821" y="177.319219" style="stroke: #000000; stroke-width: 0.8"/>
      </g>
     </g>
     <g id="text_6">
      <!-- X,M -->
      <g transform="translate(289.275696 191.917656) scale(0.1 -0.1)">
       <defs>
        <path id="DejaVuSans-2c" d="M 750 794 
L 1409 794 
L 1409 256 
L 897 -744 
L 494 -744 
L 750 256 
L 750 794 
z
" transform="scale(0.015625)"/>
       </defs>
       <use xlink:href="#DejaVuSans-58"/>
       <use xlink:href="#DejaVuSans-2c" x="68.505859"/>
       <use xlink:href="#DejaVuSans-4d" x="100.292969"/>
      </g>
     </g>
    </g>
    <g id="xtick_7">
     <g id="line2d_7">
      <g>
       <use xlink:href="#m1a3ff42e33" x="335.50625" y="177.319219" style="stroke: #000000; stroke-width: 0.8"/>
      </g>
     </g>
     <g id="text_7">
      <!-- R -->
      <g transform="translate(332.032031 191.917656) scale(0.1 -0.1)">
       <use xlink:href="#DejaVuSans-52"/>
      </g>
     </g>
    </g>
   </g>
   <g id="matplotlib.axis_2">
    <g id="ytick_1">
     <g id="line2d_8">
      <defs>
       <path id="m409e1ba2e0" d="M 0 0 
L -3.5 0 
" style="stroke: #000000; stroke-width: 0.8"/>
      </defs>
      <g>
       <use xlink:href="#m409e1ba2e0" x="56.50625" y="177.319219" style="stroke: #000000; stroke-width: 0.8"/>
      </g>
     </g>
     <g id="text_8">
      <!-- 0.000 -->
      <g transform="translate(20.878125 181.118438) scale(0.1 -0.1)">
       <defs>
        <path id="DejaVuSans-30" d="M 2034 4250 
Q 1547 4250 1301 3770 
Q 1056 3291 1056 2328 
Q 1056 1369 1301 889 
Q 1547 409 2034 409 
Q 2525 409 2770 889 
Q 3016 1369 3016 2328 
Q 3016 3291 2770 3770 
Q 2525 4250 2034 4250 
z
M 2034 4750 
Q 2819 4750 3233 4129 
Q 3647 3509 3647 2328 
Q 3647 1150 3233 529 
Q 2819 -91 2034 -91 
Q 1250 -91 836 529 
Q 422 1150 422 2328 
Q 422 3509 836 4129 
Q 1250 4750 2034 4750 
z
" transform="scale(0.015625)"/>
        <path id="DejaVuSans-2e" d="M 684 794 
L 1344 794 
L 1344 0 
L 684 0 
L 684 794 
z
" transform="scale(0.015625)"/>
       </defs>
       <use xlink:href="#DejaVuSans-30"/>
       <use xlink:href="#DejaVuSans-2e" x="63.623047"/>
       <use xlink:href="#DejaVuSans-30" x="95.410156"/>
       <use xlink:href="#DejaVuSans-30" x="159.033203"/>
       <use xlink:href="#DejaVuSans-30" x="222.65625"/>
      </g>
     </g>
    </g>
    <g id="ytick_2">
     <g id="line2d_9">
      <g>
       <use xlink:href="#m409e1ba2e0" x="56.50625" y="149.599219" style="stroke: #000000; stroke-width: 0.8"/>
      </g>
     </g>
     <g id="text_9">
      <!-- 0.005 -->
      <g transform="translate(20.878125 153.398438) scale(0.1 -0.1)">
       <defs>
        <path id="DejaVuSans-35" d="M 691 4666 
L 3169 4666 
L 3169 4134 
L 1269 4134 
L 1269 2991 
Q 1406 3038 1543 3061 
Q 1681 3084 1819 3084 
Q 2600 3084 3056 2656 
Q 3513 2228 3513 1497 
Q 3513 744 3044 326 
Q 2575 -91 1722 -91 
Q 1428 -91 1123 -41 
Q 819 9 494 109 
L 494 744 
Q 775 591 1075 516 
Q 1375 441 1709 441 
Q 2250 441 2565 725 
Q 2881 1009 2881 1497 
Q 2881 1984 2565 2268 
Q 2250 2553 1709 2553 
Q 1456 2553 1204 2497 
Q 953 2441 691 2322 
L 691 4666 
z
" transform="scale(0.015625)"/>
       </defs>
       <use xlink:href="#DejaVuSans-30"/>
       <use xlink:href="#DejaVuSans-2e" x="63.623047"/>
       <use xlink:href="#DejaVuSans-30" x="95.410156"/>
       <use xlink:href="#DejaVuSans-30" x="159.033203"/>
       <use xlink:href="#DejaVuSans-35" x="222.65625"/>
      </g>
     </g>
    </g>
    <g id="ytick_3">
     <g id="line2d_10">
      <g>
       <use xlink:href="#m409e1ba2e0" x="56.50625" y="121.879219" style="stroke: #000000; stroke-width: 0.8"/>
      </g>
     </g>
     <g id="text_10">
      <!-- 0.010 -->
      <g transform="translate(20.878125 125.678438) scale(0.1 -0.1)">
       <defs>
        <path id="DejaVuSans-31" d="M 794 531 
L 1825 531 
L 1825 4091 
L 703 3866 
L 703 4441 
L 1819 4666 
L 2450 4666 
L 2450 531 
L 3481 531 
L 3481 0 
L 794 0 
L 794 531 
z
" transform="scale(0.015625)"/>
       </defs>
       <use xlink:href="#DejaVuSans-30"/>
       <use xlink:href="#DejaVuSans-2e" x="63.623047"/>
       <use xlink:href="#DejaVuSans-30" x="95.410156"/>
       <use xlink:href="#DejaVuSans-31" x="159.033203"/>
       <use xlink:href="#DejaVuSans-30" x="222.65625"/>
      </g>
     </g>
    </g>
    <g id="ytick_4">
     <g id="line2d_11">
      <g>
       <use xlink:href="#m409e1ba2e0" x="56.50625" y="94.159219" style="stroke: #000000; stroke-width: 0.8"/>
      </g>
     </g>
     <g id="text_11">
      <!-- 0.015 -->
      <g transform="translate(20.878125 97.958438) scale(0.1 -0.1)">
       <use xlink:href="#DejaVuSans-30"/>
       <use xlink:href="#DejaVuSans-2e" x="63.623047"/>
       <use xlink:href="#DejaVuSans-30" x="95.410156"/>
       <use xlink:href="#DejaVuSans-31" x="159.033203"/>
       <use xlink:href="#DejaVuSans-35" x="222.65625"/>
      </g>
     </g>
    </g>
    <g id="ytick_5">
     <g id="line2d_12">
      <g>
       <use xlink:href="#m409e1ba2e0" x="56.50625" y="66.439219" style="stroke: #000000; stroke-width: 0.8"/>
      </g>
     </g>
     <g id="text_12">
      <!-- 0.020 -->
      <g transform="translate(20.878125 70.238438) scale(0.1 -0.1)">
       <defs>
        <path id="DejaVuSans-32" d="M 1228 531 
L 3431 531 
L 3431 0 
L 469 0 
L 469 531 
Q 828 903 1448 1529 
Q 2069 2156 2228 2338 
Q 2531 2678 2651 2914 
Q 2772 3150 2772 3378 
Q 2772 3750 2511 3984 
Q 2250 4219 1831 4219 
Q 1534 4219 1204 4116 
Q 875 4013 500 3803 
L 500 4441 
Q 881 4594 1212 4672 
Q 1544 4750 1819 4750 
Q 2544 4750 2975 4387 
Q 3406 4025 3406 3419 
Q 3406 3131 3298 2873 
Q 3191 2616 2906 2266 
Q 2828 2175 2409 1742 
Q 1991 1309 1228 531 
z
" transform="scale(0.015625)"/>
       </defs>
       <use xlink:href="#DejaVuSans-30"/>
       <use xlink:href="#DejaVuSans-2e" x="63.623047"/>
       <use xlink:href="#DejaVuSans-30" x="95.410156"/>
       <use xlink:href="#DejaVuSans-32" x="159.033203"/>
       <use xlink:href="#DejaVuSans-30" x="222.65625"/>
      </g>
     </g>
    </g>
    <g id="ytick_6">
     <g id="line2d_13">
      <g>
       <use xlink:href="#m409e1ba2e0" x="56.50625" y="38.719219" style="stroke: #000000; stroke-width: 0.8"/>
      </g>
     </g>
     <g id="text_13">
      <!-- 0.025 -->
      <g transform="translate(20.878125 42.518438) scale(0.1 -0.1)">
       <use xlink:href="#DejaVuSans-30"/>
       <use xlink:href="#DejaVuSans-2e" x="63.623047"/>
       <use xlink:href="#DejaVuSans-30" x="95.410156"/>
       <use xlink:href="#DejaVuSans-32" x="159.033203"/>
       <use xlink:href="#DejaVuSans-35" x="222.65625"/>
      </g>
     </g>
    </g>
    <g id="ytick_7">
     <g id="line2d_14">
      <g>
       <use xlink:href="#m409e1ba2e0" x="56.50625" y="10.999219" style="stroke: #000000; stroke-width: 0.8"/>
      </g>
     </g>
     <g id="text_14">
      <!-- 0.030 -->
      <g transform="translate(20.878125 14.798438) scale(0.1 -0.1)">
       <defs>
        <path id="DejaVuSans-33" d="M 2597 2516 
Q 3050 2419 3304 2112 
Q 3559 1806 3559 1356 
Q 3559 666 3084 287 
Q 2609 -91 1734 -91 
Q 1441 -91 1130 -33 
Q 819 25 488 141 
L 488 750 
Q 750 597 1062 519 
Q 1375 441 1716 441 
Q 2309 441 2620 675 
Q 2931 909 2931 1356 
Q 2931 1769 2642 2001 
Q 2353 2234 1838 2234 
L 1294 2234 
L 1294 2753 
L 1863 2753 
Q 2328 2753 2575 2939 
Q 2822 3125 2822 3475 
Q 2822 3834 2567 4026 
Q 2313 4219 1838 4219 
Q 1578 4219 1281 4162 
Q 984 4106 628 3988 
L 628 4550 
Q 988 4650 1302 4700 
Q 1616 4750 1894 4750 
Q 2613 4750 3031 4423 
Q 3450 4097 3450 3541 
Q 3450 3153 3228 2886 
Q 3006 2619 2597 2516 
z
" transform="scale(0.015625)"/>
       </defs>
       <use xlink:href="#DejaVuSans-30"/>
       <use xlink:href="#DejaVuSans-2e" x="63.623047"/>
       <use xlink:href="#DejaVuSans-30" x="95.410156"/>
       <use xlink:href="#DejaVuSans-33" x="159.033203"/>
       <use xlink:href="#DejaVuSans-30" x="222.65625"/>
      </g>
     </g>
    </g>
    <g id="text_15">
     <!-- energies [eV] -->
     <g transform="translate(14.798438 127.681094) rotate(-90) scale(0.1 -0.1)">
      <defs>
       <path id="DejaVuSans-65" d="M 3597 1894 
L 3597 1613 
L 953 1613 
Q 991 1019 1311 708 
Q 1631 397 2203 397 
Q 2534 397 2845 478 
Q 3156 559 3463 722 
L 3463 178 
Q 3153 47 2828 -22 
Q 2503 -91 2169 -91 
Q 1331 -91 842 396 
Q 353 884 353 1716 
Q 353 2575 817 3079 
Q 1281 3584 2069 3584 
Q 2775 3584 3186 3129 
Q 3597 2675 3597 1894 
z
M 3022 2063 
Q 3016 2534 2758 2815 
Q 2500 3097 2075 3097 
Q 1594 3097 1305 2825 
Q 1016 2553 972 2059 
L 3022 2063 
z
" transform="scale(0.015625)"/>
       <path id="DejaVuSans-6e" d="M 3513 2113 
L 3513 0 
L 2938 0 
L 2938 2094 
Q 2938 2591 2744 2837 
Q 2550 3084 2163 3084 
Q 1697 3084 1428 2787 
Q 1159 2491 1159 1978 
L 1159 0 
L 581 0 
L 581 3500 
L 1159 3500 
L 1159 2956 
Q 1366 3272 1645 3428 
Q 1925 3584 2291 3584 
Q 2894 3584 3203 3211 
Q 3513 2838 3513 2113 
z
" transform="scale(0.015625)"/>
       <path id="DejaVuSans-72" d="M 2631 2963 
Q 2534 3019 2420 3045 
Q 2306 3072 2169 3072 
Q 1681 3072 1420 2755 
Q 1159 2438 1159 1844 
L 1159 0 
L 581 0 
L 581 3500 
L 1159 3500 
L 1159 2956 
Q 1341 3275 1631 3429 
Q 1922 3584 2338 3584 
Q 2397 3584 2469 3576 
Q 2541 3569 2628 3553 
L 2631 2963 
z
" transform="scale(0.015625)"/>
       <path id="DejaVuSans-67" d="M 2906 1791 
Q 2906 2416 2648 2759 
Q 2391 3103 1925 3103 
Q 1463 3103 1205 2759 
Q 947 2416 947 1791 
Q 947 1169 1205 825 
Q 1463 481 1925 481 
Q 2391 481 2648 825 
Q 2906 1169 2906 1791 
z
M 3481 434 
Q 3481 -459 3084 -895 
Q 2688 -1331 1869 -1331 
Q 1566 -1331 1297 -1286 
Q 1028 -1241 775 -1147 
L 775 -588 
Q 1028 -725 1275 -790 
Q 1522 -856 1778 -856 
Q 2344 -856 2625 -561 
Q 2906 -266 2906 331 
L 2906 616 
Q 2728 306 2450 153 
Q 2172 0 1784 0 
Q 1141 0 747 490 
Q 353 981 353 1791 
Q 353 2603 747 3093 
Q 1141 3584 1784 3584 
Q 2172 3584 2450 3431 
Q 2728 3278 2906 2969 
L 2906 3500 
L 3481 3500 
L 3481 434 
z
" transform="scale(0.015625)"/>
       <path id="DejaVuSans-69" d="M 603 3500 
L 1178 3500 
L 1178 0 
L 603 0 
L 603 3500 
z
M 603 4863 
L 1178 4863 
L 1178 4134 
L 603 4134 
L 603 4863 
z
" transform="scale(0.015625)"/>
       <path id="DejaVuSans-73" d="M 2834 3397 
L 2834 2853 
Q 2591 2978 2328 3040 
Q 2066 3103 1784 3103 
Q 1356 3103 1142 2972 
Q 928 2841 928 2578 
Q 928 2378 1081 2264 
Q 1234 2150 1697 2047 
L 1894 2003 
Q 2506 1872 2764 1633 
Q 3022 1394 3022 966 
Q 3022 478 2636 193 
Q 2250 -91 1575 -91 
Q 1294 -91 989 -36 
Q 684 19 347 128 
L 347 722 
Q 666 556 975 473 
Q 1284 391 1588 391 
Q 1994 391 2212 530 
Q 2431 669 2431 922 
Q 2431 1156 2273 1281 
Q 2116 1406 1581 1522 
L 1381 1569 
Q 847 1681 609 1914 
Q 372 2147 372 2553 
Q 372 3047 722 3315 
Q 1072 3584 1716 3584 
Q 2034 3584 2315 3537 
Q 2597 3491 2834 3397 
z
" transform="scale(0.015625)"/>
       <path id="DejaVuSans-20" transform="scale(0.015625)"/>
       <path id="DejaVuSans-5b" d="M 550 4863 
L 1875 4863 
L 1875 4416 
L 1125 4416 
L 1125 -397 
L 1875 -397 
L 1875 -844 
L 550 -844 
L 550 4863 
z
" transform="scale(0.015625)"/>
       <path id="DejaVuSans-56" d="M 1831 0 
L 50 4666 
L 709 4666 
L 2188 738 
L 3669 4666 
L 4325 4666 
L 2547 0 
L 1831 0 
z
" transform="scale(0.015625)"/>
       <path id="DejaVuSans-5d" d="M 1947 4863 
L 1947 -844 
L 622 -844 
L 622 -397 
L 1369 -397 
L 1369 4416 
L 622 4416 
L 622 4863 
L 1947 4863 
z
" transform="scale(0.015625)"/>
      </defs>
      <use xlink:href="#DejaVuSans-65"/>
      <use xlink:href="#DejaVuSans-6e" x="61.523438"/>
      <use xlink:href="#DejaVuSans-65" x="124.902344"/>
      <use xlink:href="#DejaVuSans-72" x="186.425781"/>
      <use xlink:href="#DejaVuSans-67" x="225.789062"/>
      <use xlink:href="#DejaVuSans-69" x="289.265625"/>
      <use xlink:href="#DejaVuSans-65" x="317.048828"/>
      <use xlink:href="#DejaVuSans-73" x="378.572266"/>
      <use xlink:href="#DejaVuSans-20" x="430.671875"/>
      <use xlink:href="#DejaVuSans-5b" x="462.458984"/>
      <use xlink:href="#DejaVuSans-65" x="501.472656"/>
      <use xlink:href="#DejaVuSans-56" x="562.996094"/>
      <use xlink:href="#DejaVuSans-5d" x="631.404297"/>
     </g>
    </g>
   </g>
   <g id="line2d_15">
    <path d="M 93.408679 177.319219 
L 93.408679 10.999219 
" clip-path="url(#pa4a5a3257e)" style="fill: none; stroke: #808080; stroke-width: 1.5; stroke-linecap: square"/>
   </g>
   <g id="line2d_16">
    <path d="M 130.311108 177.319219 
L 130.311108 10.999219 
" clip-path="url(#pa4a5a3257e)" style="fill: none; stroke: #808080; stroke-width: 1.5; stroke-linecap: square"/>
   </g>
   <g id="line2d_17">
    <path d="M 182.499024 177.319219 
L 182.499024 10.999219 
" clip-path="url(#pa4a5a3257e)" style="fill: none; stroke: #808080; stroke-width: 1.5; stroke-linecap: square"/>
   </g>
   <g id="line2d_18">
    <path d="M 246.415905 177.319219 
L 246.415905 10.999219 
" clip-path="url(#pa4a5a3257e)" style="fill: none; stroke: #808080; stroke-width: 1.5; stroke-linecap: square"/>
   </g>
   <g id="line2d_19">
    <path d="M 298.603821 177.319219 
L 298.603821 10.999219 
" clip-path="url(#pa4a5a3257e)" style="fill: none; stroke: #808080; stroke-width: 1.5; stroke-linecap: square"/>
   </g>
   <g id="line2d_20">
    <path d="M 56.50625 177.319219 
L 335.50625 177.319219 
" clip-path="url(#pa4a5a3257e)" style="fill: none; stroke-dasharray: 1.5,2.475; stroke-dashoffset: 0; stroke: #000000; stroke-width: 1.5"/>
   </g>
   <g id="line2d_21">
    <path d="M 56.50625 177.319262 
L 66.83893 153.297191 
L 72.743319 140.051958 
L 77.17161 130.519103 
L 81.599902 121.427792 
L 86.028193 112.859615 
L 90.456485 104.889367 
L 93.408679 99.941738 
L 94.828003 100.040948 
L 96.247327 100.331722 
L 97.666652 100.794783 
L 100.5053 102.121183 
L 104.763273 104.622026 
L 109.021245 107.048538 
L 111.859893 108.331088 
L 113.279218 108.821747 
L 114.698542 109.19465 
L 116.117866 109.439373 
L 117.53719 109.547604 
L 118.956514 109.513196 
L 120.375839 109.332193 
L 121.795163 109.002827 
L 123.214487 108.525469 
L 124.633811 107.902528 
L 126.053135 107.138298 
L 128.891784 105.211405 
L 130.311108 104.064961 
L 135.953045 111.022663 
L 141.594982 118.33052 
L 148.647403 127.872282 
L 155.699824 137.777159 
L 164.162729 150.024365 
L 175.446603 166.75224 
L 182.499024 177.319262 
L 192.225506 159.744471 
L 197.783495 150.120458 
L 201.951988 143.249772 
L 206.12048 136.759693 
L 210.288972 130.718177 
L 214.457464 125.186304 
L 217.236459 121.8084 
L 220.015454 118.695164 
L 222.794449 115.859206 
L 225.573444 113.311669 
L 228.352439 111.062261 
L 231.131434 109.119306 
L 233.910429 107.489805 
L 236.689423 106.17949 
L 239.468418 105.192878 
L 242.247413 104.53331 
L 245.026408 104.202983 
L 260.149567 103.694178 
L 268.389765 103.027128 
L 278.003328 101.986579 
L 294.483722 100.084427 
L 298.603821 99.941738 
L 298.603821 104.064961 
L 335.50625 104.161783 
L 335.50625 104.161783 
" clip-path="url(#pa4a5a3257e)" style="fill: none; stroke: #008000; stroke-width: 1.5; stroke-linecap: square"/>
   </g>
   <g id="line2d_22">
    <path d="M 56.50625 177.319236 
L 66.83893 153.297061 
L 72.743319 140.051827 
L 77.17161 130.519015 
L 81.599902 121.427754 
L 86.028193 112.859599 
L 90.456485 104.889353 
L 93.408679 99.941692 
L 94.828003 100.040819 
L 96.247327 100.331603 
L 97.666652 100.794681 
L 100.5053 102.12112 
L 104.763273 104.621971 
L 109.021245 107.048442 
L 111.859893 108.330969 
L 113.279218 108.821619 
L 114.698542 109.194514 
L 116.117866 109.439229 
L 117.53719 109.547454 
L 118.956514 109.51304 
L 120.375839 109.332032 
L 121.795163 109.002663 
L 123.214487 108.525304 
L 124.633811 107.902363 
L 126.053135 107.138134 
L 128.891784 105.211244 
L 130.311108 104.064871 
L 131.721592 103.944042 
L 133.132076 103.584345 
L 134.542561 102.993804 
L 135.953045 102.185365 
L 137.363529 101.176249 
L 138.774013 99.98718 
L 141.594982 97.164514 
L 144.41595 93.921364 
L 145.826434 95.43501 
L 151.468371 107.038552 
L 157.110308 119.140073 
L 164.162729 134.828698 
L 172.625634 154.243516 
L 182.499024 177.319236 
L 192.225506 159.74435 
L 197.783495 150.120411 
L 201.951988 143.249756 
L 206.12048 136.759656 
L 210.288972 130.718121 
L 214.457464 125.186265 
L 217.236459 121.808375 
L 220.015454 118.695146 
L 222.794449 115.859187 
L 225.573444 113.311642 
L 228.352439 111.062225 
L 231.131434 109.119267 
L 233.910429 107.48977 
L 236.689423 106.179465 
L 239.468418 105.19286 
L 242.247413 104.53329 
L 245.026408 104.202956 
L 260.149567 103.694043 
L 268.389765 103.026981 
L 278.003328 101.986436 
L 294.483722 100.08432 
L 298.603821 99.941692 
L 298.603821 104.064871 
L 335.50625 104.161762 
L 335.50625 104.161762 
" clip-path="url(#pa4a5a3257e)" style="fill: none; stroke: #008000; stroke-width: 1.5; stroke-linecap: square"/>
   </g>
   <g id="line2d_23">
    <path d="M 56.50625 177.31922 
L 71.267222 133.255974 
L 78.647707 111.809357 
L 84.552096 95.270683 
L 86.028193 91.256031 
L 87.50429 91.004754 
L 90.456485 95.307955 
L 93.408679 99.941638 
L 94.828003 99.867016 
L 96.247327 99.643688 
L 97.666652 99.27389 
L 99.085976 98.761169 
L 100.5053 98.110342 
L 103.343948 96.419167 
L 106.182597 94.258705 
L 109.021245 91.697466 
L 111.859893 88.808929 
L 113.279218 87.265161 
L 114.698542 86.697188 
L 123.214487 96.90777 
L 126.053135 100.011283 
L 128.891784 102.80898 
L 130.311108 104.064813 
L 131.721592 103.944008 
L 133.132076 103.584315 
L 134.542561 102.993779 
L 135.953045 102.185342 
L 137.363529 101.176228 
L 138.774013 99.98716 
L 141.594982 97.164497 
L 144.41595 93.921343 
L 152.878855 83.672058 
L 154.289339 87.028505 
L 157.110308 94.625624 
L 161.34176 106.83835 
L 165.573213 119.897471 
L 169.804666 133.643637 
L 175.446603 152.752447 
L 182.499024 177.31922 
L 193.615003 137.089525 
L 199.172993 117.713856 
L 204.730982 99.248229 
L 208.899475 86.196505 
L 210.288972 82.026468 
L 211.67847 82.314588 
L 217.236459 87.058606 
L 225.573444 94.206353 
L 229.741936 97.441955 
L 232.520931 99.352918 
L 235.299926 101.005391 
L 238.078921 102.350249 
L 240.857916 103.344784 
L 243.636911 103.9557 
L 246.415905 104.161748 
L 251.90937 104.044141 
L 257.402835 103.705359 
L 264.269666 103.032752 
L 288.990258 100.276628 
L 294.483722 100.004524 
L 298.603821 99.941638 
L 298.603821 104.064813 
L 335.50625 104.161748 
L 335.50625 104.161748 
" clip-path="url(#pa4a5a3257e)" style="fill: none; stroke: #008000; stroke-width: 1.5; stroke-linecap: square"/>
   </g>
   <g id="line2d_24">
    <path d="M 56.50625 68.660946 
L 59.458444 68.869221 
L 62.410639 69.49361 
L 65.362833 70.532237 
L 68.315027 71.982051 
L 71.267222 73.838742 
L 74.219416 76.096711 
L 77.17161 78.749027 
L 80.123805 81.787382 
L 83.075999 85.202052 
L 86.028193 88.981844 
L 88.980388 93.114033 
L 91.932582 97.584472 
L 93.408679 99.941586 
L 94.828003 99.866949 
L 96.247327 99.643621 
L 97.666652 99.273823 
L 99.085976 98.761101 
L 100.5053 98.110275 
L 103.343948 96.419101 
L 106.182597 94.258642 
L 109.021245 91.697408 
L 111.859893 88.808876 
L 113.279218 87.26511 
L 114.698542 86.69711 
L 123.214487 96.907638 
L 126.053135 100.011137 
L 128.891784 102.808825 
L 130.311108 104.064669 
L 135.953045 97.520375 
L 140.184497 92.925115 
L 143.005466 90.028001 
L 144.41595 92.622441 
L 145.826434 92.207772 
L 152.878855 83.672006 
L 155.699824 80.622381 
L 158.520792 77.925952 
L 161.34176 75.618486 
L 164.162729 73.69992 
L 166.983697 72.185205 
L 169.804666 71.030232 
L 172.625634 70.099129 
L 175.446603 69.396586 
L 178.267571 68.926194 
L 181.088539 68.690385 
L 183.888521 68.695379 
L 186.667516 68.970584 
L 189.446511 69.518011 
L 192.225506 70.331674 
L 195.0045 71.402533 
L 197.783495 72.718417 
L 200.56249 74.263931 
L 203.341485 76.020342 
L 207.509977 79.00082 
L 211.67847 82.314526 
L 217.236459 87.058543 
L 225.573444 94.206248 
L 229.741936 97.441837 
L 232.520931 99.352799 
L 235.299926 101.005273 
L 238.078921 102.350133 
L 240.857916 103.344669 
L 243.636911 103.955583 
L 246.415905 104.161662 
L 251.90937 104.044113 
L 257.402835 103.705317 
L 264.269666 103.032717 
L 288.990258 100.276539 
L 294.483722 100.004449 
L 298.603821 99.941586 
L 298.603821 104.064669 
L 335.50625 104.161662 
L 335.50625 104.161662 
" clip-path="url(#pa4a5a3257e)" style="fill: none; stroke: #008000; stroke-width: 1.5; stroke-linecap: square"/>
   </g>
   <g id="line2d_25">
    <path d="M 56.50625 68.660926 
L 59.458444 68.869206 
L 62.410639 69.493595 
L 65.362833 70.532221 
L 68.315027 71.982032 
L 71.267222 73.83872 
L 74.219416 76.096686 
L 77.17161 78.748998 
L 80.123805 81.78735 
L 83.075999 85.202016 
L 86.028193 88.981807 
L 87.50429 87.298787 
L 91.932582 75.822726 
L 93.408679 72.147256 
L 94.828003 72.029453 
L 96.247327 71.682471 
L 97.666652 71.12417 
L 99.085976 71.542594 
L 100.5053 72.380852 
L 101.924624 73.371426 
L 104.763273 75.747287 
L 107.601921 78.548466 
L 110.440569 81.662462 
L 113.279218 84.986553 
L 114.698542 85.667233 
L 118.956514 80.635536 
L 130.311108 66.807751 
L 134.542561 74.075042 
L 138.774013 81.766371 
L 143.005466 89.84795 
L 145.826434 87.275159 
L 150.057887 83.437649 
L 151.468371 82.24113 
L 152.878855 83.409143 
L 154.289339 82.106907 
L 157.110308 79.22676 
L 159.931276 76.722848 
L 162.752245 74.611621 
L 165.573213 72.879636 
L 168.394181 71.496349 
L 171.21515 70.425107 
L 174.036118 69.630995 
L 176.857087 69.084986 
L 179.678055 68.765884 
L 182.499024 68.660926 
L 185.278018 68.79867 
L 188.057013 69.210551 
L 190.836008 69.89204 
L 193.615003 70.835624 
L 196.393998 72.030704 
L 199.172993 73.463515 
L 201.951988 75.117018 
L 204.730982 76.970762 
L 208.899475 80.073322 
L 213.067967 83.474746 
L 228.352439 96.405784 
L 231.131434 98.426366 
L 233.910429 100.214512 
L 236.689423 101.718985 
L 239.468418 102.893492 
L 242.247413 103.699669 
L 245.026408 104.109968 
L 247.789272 104.113661 
L 250.536004 103.730637 
L 253.282736 102.973602 
L 256.029469 101.859991 
L 258.776201 100.414607 
L 261.522934 98.668292 
L 264.269666 96.656563 
L 267.016398 94.418415 
L 271.136497 90.728296 
L 276.629962 85.423429 
L 283.496793 78.753503 
L 286.243525 76.280129 
L 288.990258 74.049168 
L 291.73699 72.178536 
L 293.110356 71.42148 
L 294.483722 71.163159 
L 295.857089 71.706647 
L 297.230455 72.036608 
L 298.603821 72.147256 
L 298.603821 66.807751 
L 300.023145 67.056736 
L 301.442469 67.775302 
L 302.861794 68.892394 
L 304.281118 70.322643 
L 307.119766 73.822882 
L 309.958415 77.81772 
L 319.893684 92.267885 
L 322.732332 95.866258 
L 325.570981 98.967983 
L 326.990305 100.290454 
L 328.409629 101.439678 
L 329.828953 102.401486 
L 331.248277 103.163474 
L 332.667602 103.715437 
L 334.086926 104.049757 
L 335.50625 104.16163 
L 335.50625 104.16163 
" clip-path="url(#pa4a5a3257e)" style="fill: none; stroke: #008000; stroke-width: 1.5; stroke-linecap: square"/>
   </g>
   <g id="line2d_26">
    <path d="M 56.50625 68.660897 
L 63.886736 68.786391 
L 72.743319 69.195768 
L 86.028193 69.855154 
L 91.932582 69.976776 
L 93.408679 72.14694 
L 94.828003 72.029139 
L 96.247327 71.682166 
L 97.666652 71.123876 
L 99.085976 71.54257 
L 100.5053 72.380827 
L 101.924624 73.3714 
L 104.763273 75.747252 
L 107.601921 78.54842 
L 110.440569 81.662404 
L 113.279218 84.986483 
L 114.698542 85.667183 
L 118.956514 80.635487 
L 130.311108 66.80769 
L 138.774013 66.924431 
L 144.41595 67.119914 
L 145.826434 67.294786 
L 148.647403 73.326245 
L 151.468371 79.915867 
L 152.878855 81.087936 
L 157.110308 77.89998 
L 159.931276 76.0123 
L 162.752245 74.324662 
L 166.983697 72.146648 
L 169.804666 70.923968 
L 172.625634 69.995337 
L 175.446603 69.328419 
L 178.267571 68.897979 
L 181.088539 68.687011 
L 183.888521 68.695321 
L 186.667516 68.970531 
L 189.446511 69.517965 
L 192.225506 70.331633 
L 195.0045 71.402489 
L 197.783495 72.718365 
L 200.56249 74.263868 
L 203.341485 76.020265 
L 207.509977 79.000731 
L 210.288972 81.179247 
L 211.67847 77.955778 
L 214.457464 70.134285 
L 215.846962 69.974159 
L 218.625957 73.361399 
L 221.404952 77.206756 
L 226.962941 85.540857 
L 231.131434 91.681073 
L 233.910429 95.411309 
L 236.689423 98.659559 
L 238.078921 100.053235 
L 239.468418 101.268445 
L 240.857916 102.288372 
L 242.247413 103.098259 
L 243.636911 103.685935 
L 245.026408 104.042301 
L 246.415905 104.161605 
L 249.162638 103.96954 
L 251.90937 103.397832 
L 254.656103 102.459838 
L 257.402835 101.176833 
L 260.149567 99.576814 
L 262.8963 97.693122 
L 265.643032 95.563141 
L 269.763131 91.99537 
L 273.883229 88.110989 
L 284.870159 77.492853 
L 287.616891 75.127519 
L 290.363624 73.060438 
L 293.110356 71.421451 
L 294.483722 71.162861 
L 295.857089 71.706338 
L 297.230455 72.036294 
L 298.603821 72.14694 
L 298.603821 66.80769 
L 300.023145 67.056677 
L 301.442469 67.775248 
L 302.861794 68.892348 
L 304.281118 70.322606 
L 307.119766 73.82286 
L 309.958415 77.817709 
L 319.893684 92.267845 
L 322.732332 95.866211 
L 325.570981 98.967934 
L 326.990305 100.290405 
L 328.409629 101.439631 
L 329.828953 102.40144 
L 331.248277 103.163431 
L 332.667602 103.715395 
L 334.086926 104.049716 
L 335.50625 104.161605 
L 335.50625 104.161605 
" clip-path="url(#pa4a5a3257e)" style="fill: none; stroke: #008000; stroke-width: 1.5; stroke-linecap: square"/>
   </g>
   <g id="line2d_27">
    <path d="M 56.50625 68.660879 
L 63.886736 68.786343 
L 72.743319 69.195717 
L 86.028193 69.855133 
L 94.828003 70.08245 
L 96.247327 70.381314 
L 97.666652 70.871612 
L 99.085976 70.380252 
L 101.924624 68.453056 
L 104.763273 66.12489 
L 109.021245 62.26017 
L 116.117866 55.723265 
L 117.53719 54.478229 
L 118.956514 54.726015 
L 121.795163 57.460273 
L 126.053135 61.946093 
L 130.311108 66.807663 
L 138.774013 66.924421 
L 148.647403 67.31402 
L 175.446603 68.57797 
L 182.499024 68.660879 
L 185.278018 68.518819 
L 188.057013 68.104259 
L 190.836008 67.45305 
L 195.0045 66.173903 
L 199.172993 64.836675 
L 201.951988 64.155636 
L 203.341485 63.948904 
L 204.730982 63.867027 
L 206.12048 63.93697 
L 207.509977 64.183558 
L 208.899475 64.627054 
L 210.288972 65.280847 
L 211.67847 66.149903 
L 213.067967 67.230464 
L 214.457464 68.51102 
L 215.846962 69.974137 
L 218.625957 73.361377 
L 221.404952 77.206729 
L 226.962941 85.540816 
L 231.131434 91.681033 
L 233.910429 95.41127 
L 236.689423 98.659518 
L 238.078921 100.053192 
L 239.468418 101.2684 
L 240.857916 102.288326 
L 242.247413 103.098213 
L 243.636911 103.685889 
L 245.026408 104.042255 
L 246.415905 104.161596 
L 247.789272 104.011708 
L 249.162638 103.5647 
L 250.536004 102.828997 
L 251.90937 101.817972 
L 253.282736 100.549246 
L 254.656103 99.043779 
L 256.029469 97.324899 
L 258.776201 93.346649 
L 261.522934 88.816451 
L 265.643032 81.406343 
L 273.883229 66.353948 
L 276.629962 61.730204 
L 279.376694 57.463928 
L 280.75006 56.877115 
L 283.496793 60.6422 
L 286.243525 64.085194 
L 288.990258 67.073854 
L 290.363624 68.356001 
L 291.73699 69.474929 
L 293.110356 70.415293 
L 294.483722 70.807676 
L 295.857089 70.354378 
L 297.230455 70.075954 
L 298.603821 69.982017 
L 298.603821 66.807663 
L 300.023145 67.056649 
L 301.442469 67.775219 
L 302.861794 68.892317 
L 304.281118 70.322572 
L 307.119766 73.822822 
L 309.958415 77.817669 
L 319.893684 92.267818 
L 322.732332 95.866183 
L 325.570981 98.9679 
L 326.990305 100.290367 
L 328.409629 101.439588 
L 329.828953 102.401393 
L 331.248277 103.163379 
L 332.667602 103.71534 
L 334.086926 104.04966 
L 335.50625 104.161596 
L 335.50625 104.161596 
" clip-path="url(#pa4a5a3257e)" style="fill: none; stroke: #008000; stroke-width: 1.5; stroke-linecap: square"/>
   </g>
   <g id="line2d_28">
    <path d="M 56.50625 68.660863 
L 57.982347 68.601459 
L 59.458444 68.423614 
L 60.934541 68.128727 
L 63.886736 67.197665 
L 66.83893 65.836 
L 69.791124 64.082798 
L 72.743319 61.985903 
L 75.695513 59.599155 
L 80.123805 55.600893 
L 83.075999 52.741106 
L 84.552096 52.05863 
L 87.50429 58.342301 
L 90.456485 65.053755 
L 91.932582 68.555552 
L 93.408679 69.981991 
L 94.828003 70.082424 
L 96.247327 70.381289 
L 97.666652 70.871587 
L 99.085976 70.379971 
L 101.924624 68.452805 
L 104.763273 66.124664 
L 109.021245 62.259979 
L 116.117866 55.723135 
L 117.53719 54.478111 
L 118.956514 54.725967 
L 121.795163 57.460226 
L 126.053135 61.946045 
L 130.311108 66.807633 
L 134.542561 59.995843 
L 137.363529 55.722125 
L 138.774013 54.852027 
L 141.594982 59.361289 
L 144.41595 64.498297 
L 145.826434 67.180774 
L 161.34176 68.002016 
L 172.625634 68.500743 
L 181.088539 68.657514 
L 183.888521 68.6252 
L 186.667516 68.343901 
L 189.446511 67.805005 
L 192.225506 67.056738 
L 201.951988 64.155617 
L 203.341485 63.948881 
L 204.730982 63.867001 
L 206.12048 63.936941 
L 207.509977 64.183528 
L 208.899475 64.627023 
L 210.288972 65.280816 
L 211.67847 66.149873 
L 213.067967 67.230436 
L 214.457464 68.510995 
L 215.846962 69.974074 
L 218.625957 73.361315 
L 221.404952 77.206673 
L 226.962941 85.540774 
L 231.131434 91.680979 
L 233.910429 95.411202 
L 236.689423 98.659439 
L 238.078921 100.053111 
L 239.468418 101.268319 
L 240.857916 102.288246 
L 242.247413 103.098134 
L 243.636911 103.685811 
L 245.026408 104.042179 
L 246.415905 104.161552 
L 247.789272 104.011703 
L 249.162638 103.564694 
L 250.536004 102.82899 
L 251.90937 101.817962 
L 253.282736 100.549235 
L 254.656103 99.043767 
L 256.029469 97.324885 
L 258.776201 93.346632 
L 261.522934 88.816432 
L 265.643032 81.406321 
L 273.883229 66.353908 
L 276.629962 61.730165 
L 279.376694 57.463889 
L 280.75006 56.876981 
L 283.496793 60.64204 
L 286.243525 64.085 
L 288.990258 67.073621 
L 290.363624 68.355749 
L 291.73699 69.474659 
L 293.110356 70.415007 
L 294.483722 70.807649 
L 295.857089 70.354352 
L 297.230455 70.075929 
L 298.603821 69.981991 
L 298.603821 66.807633 
L 300.023145 67.05662 
L 301.442469 67.775193 
L 302.861794 68.892294 
L 304.281118 70.322552 
L 307.119766 73.822808 
L 309.958415 77.817659 
L 319.893684 92.267776 
L 322.732332 95.866131 
L 325.570981 98.967847 
L 326.990305 100.290317 
L 328.409629 101.43954 
L 329.828953 102.401349 
L 331.248277 103.163338 
L 332.667602 103.715301 
L 334.086926 104.049622 
L 335.50625 104.161552 
L 335.50625 104.161552 
" clip-path="url(#pa4a5a3257e)" style="fill: none; stroke: #008000; stroke-width: 1.5; stroke-linecap: square"/>
   </g>
   <g id="line2d_29">
    <path d="M 56.50625 68.660806 
L 57.982347 68.601432 
L 59.458444 68.423583 
L 60.934541 68.12869 
L 63.886736 67.197617 
L 66.83893 65.835946 
L 69.791124 64.082744 
L 72.743319 61.985854 
L 75.695513 59.59911 
L 80.123805 55.600853 
L 86.028193 49.791639 
L 93.408679 42.3654 
L 96.247327 42.524527 
L 99.085976 43.001014 
L 101.924624 43.792031 
L 104.763273 44.892819 
L 107.601921 46.296587 
L 110.440569 47.994378 
L 113.279218 49.9749 
L 116.117866 52.22432 
L 117.53719 53.444789 
L 118.956514 53.267442 
L 123.214487 49.881976 
L 126.053135 47.864649 
L 128.891784 46.064372 
L 130.311108 45.251027 
L 131.721592 46.435513 
L 133.132076 47.786992 
L 134.542561 49.30521 
L 137.363529 52.838975 
L 138.774013 53.668541 
L 143.005466 47.852001 
L 145.826434 44.269668 
L 147.236918 43.420237 
L 150.057887 45.054791 
L 152.878855 47.099357 
L 155.699824 49.475058 
L 159.931276 53.459446 
L 166.983697 60.337179 
L 169.804666 62.831889 
L 172.625634 65.002818 
L 175.446603 66.741571 
L 176.857087 67.419439 
L 178.267571 67.956766 
L 179.678055 68.346083 
L 181.088539 68.58191 
L 182.499024 68.660806 
L 185.278018 68.518706 
L 188.057013 68.104152 
L 190.836008 67.452957 
L 195.0045 66.173831 
L 199.172993 64.836606 
L 201.951988 64.155561 
L 203.341485 63.948825 
L 204.730982 63.866945 
L 206.12048 63.936885 
L 207.509977 64.183471 
L 208.899475 64.626966 
L 210.288972 65.280759 
L 211.67847 66.149816 
L 213.067967 67.230377 
L 214.457464 68.510934 
L 215.846962 66.394371 
L 218.625957 59.28315 
L 221.404952 52.698571 
L 224.183947 46.681452 
L 226.962941 41.270477 
L 229.741936 36.501581 
L 232.520931 32.407342 
L 235.299926 29.016415 
L 236.689423 27.592445 
L 238.078921 26.353012 
L 239.468418 25.300372 
L 240.857916 24.436457 
L 242.247413 23.762859 
L 243.636911 23.280822 
L 245.026408 22.991241 
L 246.415905 22.894766 
L 247.789272 22.964215 
L 249.162638 23.172442 
L 250.536004 23.518545 
L 251.90937 24.001113 
L 253.282736 24.618164 
L 254.656103 25.367145 
L 257.402835 27.247799 
L 260.149567 29.611037 
L 262.8963 32.415317 
L 265.643032 35.609342 
L 268.389765 39.13178 
L 272.509863 44.871573 
L 279.376694 54.913622 
L 280.75006 55.488393 
L 283.496793 51.892619 
L 286.243525 48.8156 
L 288.990258 46.302115 
L 290.363624 45.267987 
L 291.73699 44.387119 
L 293.110356 43.662445 
L 294.483722 43.096353 
L 295.857089 42.690688 
L 297.230455 42.446764 
L 298.603821 42.3654 
L 298.603821 45.251027 
L 300.023145 45.049361 
L 301.442469 44.472313 
L 302.861794 43.589616 
L 304.281118 42.484427 
L 307.119766 39.892931 
L 314.216387 33.098739 
L 317.055036 30.674494 
L 319.893684 28.528807 
L 322.732332 26.699323 
L 325.570981 25.211364 
L 328.409629 24.082235 
L 331.248277 23.323545 
L 334.086926 22.942479 
L 335.50625 22.894766 
L 335.50625 22.894766 
" clip-path="url(#pa4a5a3257e)" style="fill: none; stroke: #008000; stroke-width: 1.5; stroke-linecap: square"/>
   </g>
   <g id="line2d_30">
    <path d="M 56.50625 21.322934 
L 57.982347 21.413879 
L 59.458444 21.686557 
L 60.934541 22.140334 
L 62.410639 22.774182 
L 63.886736 23.586674 
L 65.362833 24.575982 
L 66.83893 25.739896 
L 68.315027 27.075829 
L 69.791124 28.580834 
L 72.743319 32.084553 
L 75.695513 36.220869 
L 78.647707 40.954976 
L 81.599902 46.248168 
L 83.075999 49.091451 
L 84.552096 51.274141 
L 93.408679 42.365386 
L 96.247327 42.524472 
L 99.085976 43.000961 
L 101.924624 43.791979 
L 104.763273 44.892767 
L 107.601921 46.296535 
L 110.440569 47.994325 
L 113.279218 49.974848 
L 116.117866 52.22427 
L 117.53719 53.44474 
L 118.956514 53.267335 
L 123.214487 49.881892 
L 126.053135 47.864569 
L 128.891784 46.06429 
L 130.311108 45.250985 
L 133.132076 45.155371 
L 135.953045 44.865687 
L 138.774013 44.373586 
L 141.594982 43.665959 
L 144.41595 42.726609 
L 145.826434 42.778259 
L 147.236918 42.569466 
L 148.647403 40.930865 
L 152.878855 38.392867 
L 155.699824 36.458915 
L 159.931276 33.236788 
L 166.983697 27.727161 
L 169.804666 25.767517 
L 172.625634 24.088 
L 175.446603 22.762866 
L 178.267571 21.848295 
L 179.678055 21.557395 
L 181.088539 21.381693 
L 183.888521 21.372119 
L 186.667516 21.762824 
L 189.446511 22.529043 
L 192.225506 23.638624 
L 195.0045 25.03866 
L 199.172993 27.499764 
L 203.341485 30.006043 
L 206.12048 31.408197 
L 207.509977 31.955884 
L 208.899475 32.374209 
L 210.288972 32.650129 
L 211.67847 32.778371 
L 213.067967 32.761684 
L 214.457464 32.609807 
L 217.236459 31.962775 
L 220.015454 30.980388 
L 224.183947 29.181125 
L 229.741936 26.720315 
L 233.910429 25.128846 
L 236.689423 24.270113 
L 239.468418 23.605304 
L 242.247413 23.152614 
L 245.026408 22.9235 
L 247.789272 22.964136 
L 249.162638 23.172363 
L 250.536004 23.518467 
L 251.90937 24.001036 
L 253.282736 24.618088 
L 254.656103 25.367069 
L 257.402835 27.247724 
L 260.149567 29.610964 
L 262.8963 32.415246 
L 265.643032 35.609274 
L 268.389765 39.13171 
L 272.509863 44.87149 
L 279.376694 54.913498 
L 280.75006 55.488354 
L 283.496793 51.892578 
L 286.243525 48.815553 
L 288.990258 46.302063 
L 290.363624 45.267933 
L 291.73699 44.387064 
L 293.110356 43.662391 
L 294.483722 43.096299 
L 295.857089 42.690635 
L 297.230455 42.446713 
L 298.603821 42.365386 
L 298.603821 45.250985 
L 300.023145 45.049319 
L 301.442469 44.47227 
L 302.861794 43.589572 
L 304.281118 42.484382 
L 307.119766 39.89288 
L 314.216387 33.098666 
L 317.055036 30.674419 
L 319.893684 28.528731 
L 322.732332 26.699245 
L 325.570981 25.211284 
L 328.409629 24.082154 
L 331.248277 23.323463 
L 334.086926 22.942394 
L 335.50625 22.894682 
L 335.50625 22.894682 
" clip-path="url(#pa4a5a3257e)" style="fill: none; stroke: #008000; stroke-width: 1.5; stroke-linecap: square"/>
   </g>
   <g id="line2d_31">
    <path d="M 56.50625 21.322902 
L 59.458444 21.47416 
L 62.410639 21.926743 
L 65.362833 22.67712 
L 68.315027 23.719311 
L 71.267222 25.044788 
L 74.219416 26.64232 
L 77.17161 28.497783 
L 80.123805 30.593943 
L 83.075999 32.910206 
L 87.50429 36.743288 
L 91.932582 40.917943 
L 93.408679 42.365349 
L 96.247327 42.25116 
L 100.5053 41.735417 
L 107.601921 40.69093 
L 110.440569 40.45376 
L 113.279218 40.406133 
L 116.117866 40.581824 
L 118.956514 41.001858 
L 121.795163 41.6776 
L 124.633811 42.613036 
L 127.47246 43.806359 
L 130.311108 45.250958 
L 133.132076 45.15536 
L 135.953045 44.86567 
L 138.774013 44.373563 
L 141.594982 43.665931 
L 144.41595 42.726577 
L 147.236918 41.5395 
L 150.057887 40.09408 
L 152.878855 38.392829 
L 155.699824 36.458887 
L 159.931276 33.236773 
L 166.983697 27.727141 
L 169.804666 25.76749 
L 172.625634 24.087966 
L 175.446603 22.762828 
L 178.267571 21.848256 
L 179.678055 21.557357 
L 181.088539 21.381655 
L 183.888521 21.372088 
L 186.667516 21.762796 
L 189.446511 22.529019 
L 192.225506 23.638602 
L 195.0045 25.03864 
L 199.172993 27.499747 
L 203.341485 30.006033 
L 206.12048 31.408189 
L 207.509977 31.955876 
L 208.899475 32.374202 
L 210.288972 32.650125 
L 211.67847 32.778369 
L 213.067967 32.761678 
L 214.457464 32.609795 
L 217.236459 31.962754 
L 220.015454 30.98036 
L 224.183947 29.18109 
L 229.741936 26.720275 
L 233.910429 25.128807 
L 236.689423 24.270072 
L 239.468418 23.605259 
L 242.247413 23.152564 
L 245.026408 22.923448 
L 247.789272 22.914552 
L 250.536004 23.073164 
L 253.282736 23.390027 
L 256.029469 23.864359 
L 258.776201 24.494813 
L 262.8963 25.7283 
L 267.016398 27.295894 
L 271.136497 29.176365 
L 275.256596 31.333724 
L 280.75006 34.53133 
L 287.616891 38.631496 
L 290.363624 40.090607 
L 293.110356 41.286171 
L 295.857089 42.083544 
L 297.230455 42.294104 
L 298.603821 42.365349 
L 298.603821 45.250958 
L 300.023145 45.049292 
L 301.442469 44.472245 
L 302.861794 43.589547 
L 304.281118 42.484358 
L 307.119766 39.892858 
L 314.216387 33.098655 
L 317.055036 30.674407 
L 319.893684 28.528719 
L 322.732332 26.699236 
L 325.570981 25.211276 
L 328.409629 24.082144 
L 331.248277 23.323453 
L 334.086926 22.942386 
L 335.50625 22.894673 
L 335.50625 22.894673 
" clip-path="url(#pa4a5a3257e)" style="fill: none; stroke: #008000; stroke-width: 1.5; stroke-linecap: square"/>
   </g>
   <g id="line2d_32">
    <path d="M 56.50625 21.32288 
L 59.458444 21.474143 
L 62.410639 21.926726 
L 65.362833 22.677098 
L 68.315027 23.719281 
L 71.267222 25.044753 
L 74.219416 26.642284 
L 77.17161 28.497751 
L 80.123805 30.593917 
L 83.075999 32.910186 
L 87.50429 36.743271 
L 91.932582 40.917918 
L 93.408679 42.365306 
L 96.247327 42.251099 
L 100.5053 41.735365 
L 107.601921 40.690897 
L 110.440569 40.45372 
L 113.279218 40.406081 
L 116.117866 40.581755 
L 118.956514 41.001774 
L 121.795163 41.677507 
L 124.633811 42.612941 
L 127.47246 43.806267 
L 130.311108 45.250872 
L 131.721592 44.232981 
L 133.132076 43.380845 
L 134.542561 42.693244 
L 135.953045 42.168362 
L 137.363529 41.803835 
L 138.774013 41.596736 
L 140.184497 41.543555 
L 141.594982 41.640175 
L 143.005466 41.881859 
L 144.41595 42.263231 
L 145.826434 42.164855 
L 148.647403 40.849303 
L 154.289339 35.005351 
L 157.110308 32.427919 
L 159.931276 30.112613 
L 162.752245 28.062697 
L 165.573213 26.280941 
L 168.394181 24.769651 
L 171.21515 23.530711 
L 174.036118 22.565607 
L 176.857087 21.875466 
L 179.678055 21.461073 
L 182.499024 21.32288 
L 185.278018 21.519165 
L 188.057013 22.100528 
L 190.836008 23.043632 
L 193.615003 24.306558 
L 196.393998 25.823906 
L 204.730982 30.750445 
L 207.509977 31.955869 
L 208.899475 32.374197 
L 210.288972 32.650119 
L 211.67847 32.778359 
L 213.067967 32.761667 
L 214.457464 32.609783 
L 217.236459 31.96274 
L 220.015454 30.980345 
L 224.183947 29.181077 
L 229.741936 26.720264 
L 233.910429 25.128796 
L 236.689423 24.270064 
L 239.468418 23.605254 
L 242.247413 23.15256 
L 245.026408 22.923441 
L 247.789272 22.914513 
L 250.536004 23.073125 
L 253.282736 23.38999 
L 256.029469 23.864322 
L 258.776201 24.494776 
L 262.8963 25.728266 
L 267.016398 27.295869 
L 271.136497 29.176348 
L 275.256596 31.333708 
L 280.75006 34.53131 
L 287.616891 38.631489 
L 290.363624 40.090602 
L 293.110356 41.286164 
L 295.857089 42.083533 
L 297.230455 42.294093 
L 298.603821 42.365306 
L 298.603821 45.250872 
L 300.023145 45.049207 
L 301.442469 44.472163 
L 302.861794 43.58947 
L 304.281118 42.484286 
L 307.119766 39.892794 
L 314.216387 33.098594 
L 317.055036 30.674345 
L 319.893684 28.528657 
L 322.732332 26.699174 
L 325.570981 25.211215 
L 328.409629 24.082087 
L 331.248277 23.323397 
L 334.086926 22.942331 
L 335.50625 22.894619 
L 335.50625 22.894619 
" clip-path="url(#pa4a5a3257e)" style="fill: none; stroke: #008000; stroke-width: 1.5; stroke-linecap: square"/>
   </g>
   <g id="patch_3">
    <path d="M 56.50625 177.319219 
L 56.50625 10.999219 
" style="fill: none; stroke: #000000; stroke-width: 0.8; stroke-linejoin: miter; stroke-linecap: square"/>
   </g>
   <g id="patch_4">
    <path d="M 335.50625 177.319219 
L 335.50625 10.999219 
" style="fill: none; stroke: #000000; stroke-width: 0.8; stroke-linejoin: miter; stroke-linecap: square"/>
   </g>
   <g id="patch_5">
    <path d="M 56.50625 177.319219 
L 335.50625 177.319219 
" style="fill: none; stroke: #000000; stroke-width: 0.8; stroke-linejoin: miter; stroke-linecap: square"/>
   </g>
   <g id="patch_6">
    <path d="M 56.50625 10.999219 
L 335.50625 10.999219 
" style="fill: none; stroke: #000000; stroke-width: 0.8; stroke-linejoin: miter; stroke-linecap: square"/>
   </g>
  </g>
 </g>
 <defs>
  <clipPath id="pa4a5a3257e">
   <rect x="56.50625" y="10.999219" width="279" height="166.32"/>
  </clipPath>
 </defs>
</svg>
