<?xml version="1.0" encoding="utf-8" standalone="no"?>
<!DOCTYPE svg PUBLIC "-//W3C//DTD SVG 1.1//EN"
  "http://www.w3.org/Graphics/SVG/1.1/DTD/svg11.dtd">
<svg xmlns:xlink="http://www.w3.org/1999/xlink" width="272.794168pt" height="280.512pt" viewBox="0 0 272.794168 280.512" xmlns="http://www.w3.org/2000/svg" version="1.1">
 <metadata>
  <rdf:RDF xmlns:dc="http://purl.org/dc/elements/1.1/" xmlns:cc="http://creativecommons.org/ns#" xmlns:rdf="http://www.w3.org/1999/02/22-rdf-syntax-ns#">
   <cc:Work>
    <dc:type rdf:resource="http://purl.org/dc/dcmitype/StillImage"/>
    <dc:date>2024-11-01T16:44:52.707537</dc:date>
    <dc:format>image/svg+xml</dc:format>
    <dc:creator>
     <cc:Agent>
      <dc:title>Matplotlib v3.7.5, https://matplotlib.org/</dc:title>
     </cc:Agent>
    </dc:creator>
   </cc:Work>
  </rdf:RDF>
 </metadata>
 <defs>
  <style type="text/css">*{stroke-linejoin: round; stroke-linecap: butt}</style>
 </defs>
 <g id="figure_1">
  <g id="patch_1">
   <path d="M 0 280.512 
L 272.794168 280.512 
L 272.794168 0 
L 0 0 
z
" style="fill: #ffffff"/>
  </g>
  <g id="axes_1">
   <g id="line2d_1">
    <path d="M 76.022352 211.663454 
L 79.485171 211.858446 
L 84.981873 204.494254 
L 74.527612 209.205477 
L 70.363718 220.470959 
L 68.242968 208.011496 
L 76.790623 205.205643 
L 92.04239 215.005407 
L 87.618182 210.522628 
L 71.976002 212.870656 
L 68.958475 229.764492 
L 68.509363 231.351181 
L 71.095771 213.211586 
L 84.902415 205.283725 
L 95.748268 202.926851 
L 81.792107 212.448667 
L 70.030534 207.238896 
L 68.119668 210.015535 
L 82.509653 210.209345 
L 82.397512 229.63485 
L 77.880652 219.992355 
L 82.042468 212.735776 
L 66.104197 208.109499 
L 93.872407 208.184575 
L 87.534954 221.047208 
L 79.964275 218.099493 
L 71.121452 204.13337 
L 84.912248 194.020867 
L 75.35351 209.689154 
L 71.790954 211.440096 
L 80.174513 212.956276 
L 91.431711 223.248037 
L 94.004731 221.487649 
L 83.411818 216.344554 
L 70.751496 210.736403 
L 69.427625 201.709741 
L 77.674039 217.091844 
L 83.362001 207.680765 
L 75.988278 207.603356 
L 62.166928 198.121352 
L 73.873531 215.438345 
L 89.100065 212.377657 
L 91.651423 202.626503 
L 78.057326 229.333613 
L 65.197667 228.551515 
L 79.800317 221.278985 
L 83.316616 212.605317 
L 82.302309 214.789737 
L 81.215177 203.124149 
L 84.028917 188.668643 
L 79.983655 207.178039 
L 65.313001 235.664606 
L 80.869157 223.572264 
L 101.906836 195.613 
L 87.570656 224.483154 
L 71.393365 234.418764 
L 74.591849 231.585261 
L 72.615097 209.471136 
L 59.122052 191.006454 
L 81.086036 197.41726 
L 102.909424 200.725079 
L 62.733602 226.084976 
L 52.27233 198.660312 
L 77.755239 214.197295 
L 89.0163 198.788784 
L 74.894543 241.510945 
L 46.518218 227.787504 
L 60.136984 191.100312 
L 100.043789 207.857723 
L 115.394296 217.950333 
L 88.144908 218.091486 
L 64.165502 238.30985 
L 62.893523 208.284977 
L 62.482472 196.793585 
L 65.614722 207.062583 
L 62.434708 249.363443 
L 80.423939 228.811041 
L 74.063003 204.001335 
L 97.337554 191.391129 
L 72.834927 204.08099 
L 67.680885 261.216 
L 70.48295 233.165347 
L 78.689332 199.944028 
L 101.819465 218.715021 
L 94.605316 211.122885 
L 79.039178 217.67285 
L 92.503751 208.501151 
L 97.090741 204.793827 
L 62.224757 200.256391 
L 77.821867 215.547415 
L 90.010995 217.085509 
L 79.89432 216.581781 
L 80.626293 211.559319 
L 88.668256 194.425026 
L 83.556785 206.216823 
L 76.122373 194.960573 
L 61.444646 211.190105 
L 61.310871 222.282606 
L 74.007592 205.244268 
L 86.960424 227.760126 
L 72.730116 260.009032 
" clip-path="url(#pff0ff57ec4)" style="fill: none; stroke: #1f77b4; stroke-width: 1.5; stroke-linecap: square"/>
   </g>
   <g id="line2d_2">
    <path d="M 76.022352 66.317857 
L 77.3974 67.902677 
L 84.727712 71.05295 
L 82.534022 68.848636 
L 63.158404 67.601784 
L 73.879737 75.424897 
L 81.666804 66.168827 
L 70.306513 61.667023 
L 66.292554 65.014194 
L 63.263425 73.281327 
L 63.954587 70.237433 
L 76.767662 69.172758 
L 72.97057 68.419335 
L 72.536354 51.66355 
L 68.860374 64.21745 
L 75.679147 77.463147 
L 84.345168 80.219064 
L 80.707013 81.625695 
L 81.693426 70.598704 
L 77.76873 46.079251 
L 68.831673 64.051513 
L 74.588125 84.70049 
L 84.401352 76.940035 
L 67.356096 59.439583 
L 71.064828 70.411437 
L 93.8813 77.276237 
L 81.114845 61.608409 
L 70.714965 62.358464 
L 72.787433 70.085839 
L 93.633481 84.747821 
L 88.058219 67.880633 
L 64.846509 46.605785 
L 64.89093 46.810735 
L 69.240436 61.999751 
L 62.627554 67.473716 
L 80.449207 78.497523 
L 68.931825 75.452153 
L 65.806666 53.883678 
L 85.411011 65.218709 
L 91.163137 77.367401 
L 88.313227 93.7326 
L 72.023552 87.747151 
L 58.261461 55.894257 
L 69.04537 40.80023 
L 83.341655 51.533972 
L 66.228028 53.775171 
L 54.545571 79.504291 
L 71.673387 68.431135 
L 83.510206 62.655637 
L 76.322171 68.476429 
L 99.079177 69.37835 
L 102.345269 70.754207 
L 54.836145 60.398913 
L 18.945189 61.650969 
L 56.029327 67.231386 
L 83.408326 80.452269 
L 102.738062 69.675076 
L 116.791138 69.163283 
L 127.396396 47.133367 
L 100.842015 41.571689 
L 62.900745 60.467196 
L 43.302325 66.461821 
L 36.559164 70.188757 
L 61.69493 70.179407 
L 84.980673 71.466814 
L 86.506471 55.852876 
L 101.818021 47.206434 
L 95.474357 54.246782 
L 61.107874 49.984701 
L 80.754505 60.731489 
L 93.719127 87.755494 
L 81.821791 81.441124 
L 88.361237 83.395887 
L 81.752592 67.954147 
L 80.300525 76.694638 
L 69.516837 51.443993 
L 75.008329 54.179629 
L 74.71845 65.714281 
L 79.821217 63.686731 
L 65.440961 60.486608 
L 79.800462 54.465495 
L 93.622949 71.033561 
L 42.944355 77.882195 
L 29.450222 46.48887 
L 55.358853 45.638153 
L 77.332045 53.71875 
L 90.380743 86.057073 
L 87.700135 110.509566 
L 101.988017 82.152223 
L 81.784771 42.734218 
L 79.625579 40.133857 
L 88.291005 81.32817 
L 103.875665 86.507634 
L 49.918427 41.30437 
L 40.855594 19.296 
L 67.333612 63.871506 
L 91.939591 70.87172 
L 114.995469 77.816615 
L 114.795233 81.632539 
L 82.413186 68.037583 
L 57.245158 64.806163 
" clip-path="url(#pff0ff57ec4)" style="fill: none; stroke: #ff7f0e; stroke-width: 1.5; stroke-linecap: square"/>
   </g>
   <g id="line2d_3">
    <path d="M 221.367949 211.663454 
L 223.869719 212.739088 
L 223.473237 216.181985 
L 225.060736 203.684311 
L 225.117338 206.85685 
L 219.774279 210.624441 
L 220.259655 201.266659 
L 218.054381 199.134235 
L 216.766585 212.851034 
L 229.936626 209.319041 
L 226.0668 210.332758 
L 228.968418 211.841008 
L 221.021798 206.974423 
L 215.251391 204.608893 
L 215.116592 196.619099 
L 220.864802 215.108808 
L 235.594401 223.648313 
L 235.317027 225.493668 
L 207.722869 216.670211 
L 204.301041 210.514835 
L 219.430341 202.125901 
L 234.180957 208.230264 
L 214.508519 212.749211 
L 218.512456 212.786028 
L 253.848978 213.860429 
L 239.091216 190.467107 
L 230.19201 195.894438 
L 217.133965 213.30279 
L 241.414573 221.804683 
L 227.436859 204.985641 
L 230.795443 220.461466 
L 240.450224 216.23058 
L 221.313399 195.99132 
L 208.971561 204.37502 
L 211.872088 221.73683 
L 221.22464 210.979287 
L 227.141166 202.778197 
L 225.73582 204.975761 
L 218.734857 224.538916 
L 216.033322 237.55232 
L 203.304719 249.399058 
L 219.387944 226.154108 
L 231.136073 226.473068 
L 209.863135 206.195399 
L 214.292987 185.63597 
L 219.111629 211.762612 
L 228.364079 226.750739 
L 242.521416 209.535345 
L 247.254474 214.257449 
L 243.972215 220.714966 
L 208.591725 235.152024 
L 209.399507 230.755921 
L 210.722254 231.85002 
L 198.0279 222.396014 
L 202.754438 213.26605 
L 231.152144 202.159311 
L 251.034067 201.20953 
L 242.686488 222.113528 
L 212.212907 221.527939 
L 205.463043 219.136317 
L 202.72772 197.479469 
L 215.847948 188.703005 
L 223.197228 184.242419 
L 230.339533 206.297896 
L 221.693805 226.234388 
L 199.901874 213.461373 
L 216.929691 190.425215 
L 213.487459 227.413508 
L 233.673082 234.520898 
L 243.928871 201.601244 
L 223.173343 216.324768 
L 209.139842 237.118459 
L 230.05877 211.682243 
L 236.399995 196.355126 
L 218.854706 201.466375 
L 213.494956 219.503382 
L 184.891917 227.056298 
L 200.741168 225.139335 
L 231.226779 184.769358 
L 235.306438 204.524496 
L 227.295293 210.824693 
L 214.653584 221.942883 
L 225.434216 197.10278 
L 208.33818 217.570191 
L 202.538724 222.925484 
L 213.816581 189.782105 
L 240.781874 202.951672 
L 222.924055 240.399511 
L 218.957753 223.066622 
L 228.92736 198.701702 
L 226.992949 219.104975 
L 245.980493 248.744095 
L 192.56497 223.798589 
L 239.187936 227.678188 
L 242.988144 221.338601 
L 208.054348 198.433365 
L 204.779637 226.958962 
L 215.038612 244.751372 
L 213.92484 228.605201 
L 231.100495 215.67062 
L 230.368892 206.921386 
" clip-path="url(#pff0ff57ec4)" style="fill: none; stroke: #2ca02c; stroke-width: 1.5; stroke-linecap: square"/>
   </g>
   <g id="line2d_4">
    <path d="M 221.367949 66.317857 
L 222.387209 62.762571 
L 226.04398 59.549401 
L 230.514721 66.175612 
L 224.382697 69.5545 
L 225.140187 66.676783 
L 224.712551 55.789451 
L 223.334092 52.411864 
L 224.413738 58.45925 
L 214.470844 60.070886 
L 204.000848 67.010836 
L 209.241093 74.521476 
L 214.319625 61.143083 
L 232.162923 65.688429 
L 244.002255 77.275543 
L 229.131113 68.057046 
L 210.681946 63.456983 
L 216.861196 59.473055 
L 210.257986 46.923763 
L 230.279185 61.544643 
L 228.433003 84.032119 
L 216.562473 76.003132 
L 211.589932 52.495736 
L 227.770789 67.643583 
L 213.583066 54.466568 
L 212.463432 60.048945 
L 234.622729 63.544601 
L 215.672656 66.807566 
L 233.258824 77.038018 
L 247.259005 64.780297 
L 228.239124 66.007352 
L 201.974728 62.580755 
L 195.35895 72.508366 
L 210.146983 52.345443 
L 220.056047 59.890051 
L 231.673244 70.38938 
L 227.070245 61.325237 
L 214.703023 69.198621 
L 212.235979 67.103771 
L 211.74047 63.193284 
L 228.408974 50.564084 
L 229.710665 57.933245 
L 219.012462 72.044503 
L 212.563615 65.734595 
L 208.0118 73.255588 
L 208.614027 63.407633 
L 230.849329 62.063174 
L 225.363863 82.582608 
L 223.921356 75.272799 
L 226.386824 55.144817 
L 207.851248 46.728898 
L 211.490051 66.761478 
L 212.969229 73.364368 
L 190.564399 50.96547 
L 221.478258 43.643863 
L 253.124574 58.692575 
L 236.923458 88.319866 
L 225.100109 86.407589 
L 214.768125 55.979218 
L 228.242287 55.675008 
L 210.741629 51.708842 
L 244.28071 42.888114 
L 220.969802 60.074914 
L 195.980706 66.787609 
L 226.377466 68.75797 
L 232.555602 68.540714 
L 216.676529 71.177444 
L 228.912846 102.127948 
L 224.524939 83.705585 
L 218.223706 33.986336 
L 231.166206 62.734767 
L 231.21395 80.669921 
L 240.116116 87.46478 
L 220.65241 86.796119 
L 208.883831 61.259218 
L 223.486053 58.857652 
L 214.148564 72.212657 
L 218.999502 66.305613 
L 227.985576 71.741919 
L 224.469223 70.532251 
L 205.052027 58.166107 
L 205.152305 75.619553 
L 231.15628 78.877369 
L 228.471869 65.33637 
L 217.677525 49.486631 
L 219.181431 48.82247 
L 208.008172 52.963774 
L 210.406064 61.798137 
L 213.243366 80.367854 
L 198.287715 59.238027 
L 207.624849 64.65044 
L 233.840357 72.536111 
L 232.15379 68.184932 
L 200.217371 57.959242 
L 208.893799 48.34584 
L 219.829288 77.42167 
L 237.331897 71.561442 
L 226.626798 70.673361 
L 217.79242 86.545482 
L 232.923443 84.415775 
L 229.440025 69.2414 
" clip-path="url(#pff0ff57ec4)" style="fill: none; stroke: #d62728; stroke-width: 1.5; stroke-linecap: square"/>
   </g>
  </g>
 </g>
 <defs>
  <clipPath id="pff0ff57ec4">
   <rect x="7.2" y="7.2" width="258.394168" height="266.112"/>
  </clipPath>
 </defs>
</svg>
