<?xml version="1.0" encoding="utf-8" standalone="no"?>
<!DOCTYPE svg PUBLIC "-//W3C//DTD SVG 1.1//EN"
  "http://www.w3.org/Graphics/SVG/1.1/DTD/svg11.dtd">
<svg xmlns:xlink="http://www.w3.org/1999/xlink" width="280.254923pt" height="280.512pt" viewBox="0 0 280.254923 280.512" xmlns="http://www.w3.org/2000/svg" version="1.1">
 <metadata>
  <rdf:RDF xmlns:dc="http://purl.org/dc/elements/1.1/" xmlns:cc="http://creativecommons.org/ns#" xmlns:rdf="http://www.w3.org/1999/02/22-rdf-syntax-ns#">
   <cc:Work>
    <dc:type rdf:resource="http://purl.org/dc/dcmitype/StillImage"/>
    <dc:date>2025-02-15T10:31:54.107492</dc:date>
    <dc:format>image/svg+xml</dc:format>
    <dc:creator>
     <cc:Agent>
      <dc:title>Matplotlib v3.9.4, https://matplotlib.org/</dc:title>
     </cc:Agent>
    </dc:creator>
   </cc:Work>
  </rdf:RDF>
 </metadata>
 <defs>
  <style type="text/css">*{stroke-linejoin: round; stroke-linecap: butt}</style>
 </defs>
 <g id="figure_1">
  <g id="patch_1">
   <path d="M 0 280.512 
L 280.254923 280.512 
L 280.254923 0 
L 0 0 
z
" style="fill: #ffffff"/>
  </g>
  <g id="axes_1">
   <g id="line2d_1">
    <path d="M 64.634518 226.652206 
L 67.088849 220.709384 
L 66.334243 215.812443 
L 69.355543 220.262925 
L 65.849962 222.127504 
L 51.43552 220.752923 
L 56.62585 224.581602 
L 65.760486 233.417167 
L 62.739785 233.430069 
L 72.44939 216.590708 
L 81.569958 219.143548 
L 65.29183 234.033579 
L 45.591957 227.963559 
L 51.857935 204.823172 
L 56.842362 222.508883 
L 77.750467 233.339941 
L 76.497016 211.752365 
L 45.266287 222.064764 
L 51.906741 216.610829 
L 95.150856 220.561517 
L 68.364071 237.82725 
L 54.699697 229.507422 
L 65.688466 207.636046 
L 74.053125 218.651951 
L 62.76311 228.086361 
L 66.79343 207.916774 
L 78.714464 230.940264 
L 72.71979 232.25438 
L 73.375741 216.472188 
L 81.469728 233.80568 
L 60.620728 239.370063 
L 69.963435 228.943652 
L 37.98577 222.475955 
L 44.544553 221.140849 
L 69.556247 224.946269 
L 56.28675 222.281185 
L 64.272911 239.743209 
L 64.172398 222.758316 
L 64.105431 197.282728 
L 56.331733 206.1443 
L 59.882907 214.470174 
L 71.547646 234.69534 
L 83.294822 232.21232 
L 47.351922 219.61438 
L 53.902571 233.504181 
L 82.435175 210.519044 
L 99.009618 211.143543 
L 72.832686 232.389013 
L 51.976923 230.209143 
L 54.218244 227.993822 
L 70.637824 239.607043 
L 85.803398 255.298124 
L 84.686311 218.474792 
L 78.602713 247.355178 
L 59.212883 250.091582 
L 56.914262 229.872659 
L 54.039256 224.992492 
L 60.707036 218.72311 
L 62.848214 211.666903 
L 66.385185 227.960508 
L 65.354155 237.021997 
L 70.280425 229.397132 
L 58.41953 220.266736 
L 59.109865 223.618657 
L 58.172354 234.287151 
L 57.437154 212.664295 
L 72.008936 245.128159 
L 88.307984 257.331962 
L 36.901722 224.796854 
L 43.005684 195.593122 
L 60.679475 221.464758 
L 84.961559 228.976862 
L 71.449175 210.942417 
L 71.346837 202.016872 
L 66.598361 221.597321 
L 77.678756 214.994851 
L 89.065661 213.35666 
L 74.984077 240.785599 
L 57.064906 213.641856 
L 70.528733 211.920372 
L 66.717552 228.903259 
L 64.600566 210.227722 
L 77.882006 203.724429 
L 83.374405 207.306415 
L 74.972757 212.640355 
L 68.793012 248.504974 
L 83.811997 251.977892 
L 65.729869 226.459632 
L 46.782264 229.66718 
L 66.238498 237.841911 
L 97.624756 209.562556 
L 60.258502 226.533648 
L 28.424371 220.728902 
L 29.062661 242.143611 
L 63.328175 246.069011 
L 65.574643 220.456056 
L 62.962728 224.041692 
L 98.939448 232.620428 
L 79.291819 226.480926 
L 29.505758 215.188983 
L 60.977691 245.03947 
" clip-path="url(#p3df18d23b7)" style="fill: none; stroke: #1f77b4; stroke-width: 1.5; stroke-linecap: square"/>
   </g>
   <g id="line2d_2">
    <path d="M 64.634518 67.080688 
L 62.478266 70.431496 
L 60.84421 68.346119 
L 65.634677 63.055562 
L 62.692956 59.154059 
L 58.909273 56.559775 
L 68.831324 70.799388 
L 80.357719 83.476569 
L 62.128749 69.293897 
L 55.188489 56.500404 
L 60.652492 45.862553 
L 51.730015 54.332512 
L 73.766557 72.537157 
L 63.741057 62.801269 
L 40.934379 64.347595 
L 56.923762 70.459092 
L 85.102665 66.673223 
L 64.645512 61.434881 
L 58.7089 57.083323 
L 65.674425 67.537968 
L 32.709692 77.996873 
L 47.723492 86.758266 
L 68.030629 83.444395 
L 84.342662 63.861097 
L 67.708124 45.170502 
L 62.567845 46.288832 
L 59.092332 54.805195 
L 69.604538 65.579707 
L 81.338042 87.59994 
L 54.872218 90.330363 
L 81.493839 98.723491 
L 77.243423 95.397005 
L 58.909545 79.445633 
L 50.948726 54.741418 
L 58.904679 45.387848 
L 55.024717 59.475776 
L 66.571661 84.236084 
L 69.285963 77.059023 
L 60.055674 81.426766 
L 62.984371 64.721136 
L 68.621419 39.245446 
L 47.695378 50.388128 
L 43.407046 71.373752 
L 56.739723 77.873398 
L 74.401253 69.438853 
L 72.374151 69.79474 
L 51.79658 52.786374 
L 67.403511 48.462994 
L 52.271592 73.702332 
L 44.030466 72.538229 
L 58.593224 72.920891 
L 66.266834 76.910052 
L 63.515761 56.879244 
L 45.190079 76.679661 
L 56.349057 78.855453 
L 53.913468 70.428727 
L 78.625705 62.024553 
L 84.853998 46.020579 
L 85.536439 42.024862 
L 76.097561 63.980078 
L 50.088817 78.092454 
L 66.898187 71.981462 
L 74.19897 60.283705 
L 81.968574 65.549351 
L 62.20615 68.967986 
L 60.312089 61.79685 
L 50.290275 66.673903 
L 55.991156 51.017081 
L 55.140611 68.425976 
L 55.036729 85.893886 
L 69.11469 88.71013 
L 92.176618 68.120311 
L 58.770321 41.67061 
L 61.189983 61.488746 
L 64.578101 67.543524 
L 46.913439 97.02035 
L 72.953293 80.079864 
L 66.983737 57.507047 
L 57.361313 45.780241 
L 40.038687 59.298478 
L 61.06466 82.290246 
L 51.858289 65.86818 
L 57.428522 68.065472 
L 78.992088 56.436073 
L 93.206935 62.659696 
L 81.914312 107.216647 
L 49.571377 70.055541 
L 37.648411 68.050218 
L 59.639173 75.207681 
L 75.563564 54.362723 
L 53.858969 19.296 
L 70.362552 49.513594 
L 80.943191 98.069895 
L 40.256978 71.121909 
L 19.284315 75.810836 
L 45.657217 64.031435 
L 70.660706 36.780132 
L 61.286275 55.292412 
L 44.811452 94.609925 
L 63.700828 108.535507 
L 59.431344 97.908454 
" clip-path="url(#p3df18d23b7)" style="fill: none; stroke: #ff7f0e; stroke-width: 1.5; stroke-linecap: square"/>
   </g>
   <g id="line2d_3">
    <path d="M 224.206037 226.652206 
L 227.112632 228.473024 
L 232.342402 228.319223 
L 214.488424 217.081362 
L 209.714822 213.512192 
L 223.068601 228.13504 
L 228.213801 231.057544 
L 223.447946 232.611065 
L 228.316855 249.03076 
L 235.656172 221.227494 
L 214.797189 209.214913 
L 213.023122 225.491206 
L 208.35392 229.559079 
L 230.72656 234.423967 
L 239.767689 229.347776 
L 223.557215 218.191962 
L 197.482564 231.526775 
L 212.879181 247.580511 
L 210.24464 252.353081 
L 216.075017 239.28917 
L 242.670648 210.086498 
L 238.595219 205.474117 
L 217.421885 217.600974 
L 216.612094 240.926352 
L 213.283828 250.005506 
L 232.775218 223.854005 
L 247.588937 220.536372 
L 240.293089 225.617956 
L 212.786008 229.938339 
L 234.25131 238.795951 
L 237.376452 236.67627 
L 236.040502 237.841954 
L 233.066517 225.387357 
L 203.399707 209.080566 
L 204.518258 205.609014 
L 212.973081 213.519514 
L 212.092438 243.622296 
L 204.174141 261.216 
L 203.591661 254.684801 
L 223.86733 237.699036 
L 220.864362 195.484078 
L 201.359234 188.124348 
L 214.275206 219.773254 
L 220.869368 241.84999 
L 205.675481 244.17627 
L 228.478286 215.802082 
L 231.940006 210.715585 
L 228.700875 217.625446 
L 225.403301 209.84964 
L 210.968494 223.138219 
L 210.076447 233.139021 
L 217.56076 224.777018 
L 250.310992 227.834903 
L 227.735716 230.785903 
L 202.209739 216.942667 
L 220.474165 226.704929 
L 208.976045 222.898979 
L 216.617738 213.072382 
L 210.8836 206.028227 
L 215.648407 226.348301 
L 225.337523 252.134471 
L 216.215178 222.455687 
L 222.293338 229.644259 
L 231.422665 214.400125 
L 217.787115 232.837231 
L 237.978525 211.372113 
L 225.644633 219.657542 
L 214.906076 206.573054 
L 203.557516 212.51436 
L 208.764557 226.472739 
L 222.51393 242.980597 
L 221.117762 231.254207 
L 223.343968 214.923881 
L 185.350815 217.64676 
L 210.337237 216.864432 
L 251.352561 223.752972 
L 229.282186 208.469257 
L 211.427361 211.910821 
L 215.714174 208.275631 
L 222.49322 213.062962 
L 220.685933 202.257128 
L 230.625472 249.954846 
L 227.660825 234.83112 
L 188.941299 238.28846 
L 219.11029 248.004323 
L 224.183537 237.175348 
L 227.877719 236.875798 
L 218.2386 216.188981 
L 234.829376 211.743887 
L 218.314731 186.24843 
L 191.312257 211.370692 
L 225.746745 223.949637 
L 231.198447 220.808597 
L 243.419236 233.057956 
L 228.616803 241.621022 
L 233.925023 238.227939 
L 248.710797 222.742923 
L 206.069844 216.163517 
L 209.011392 237.704132 
L 248.310145 220.845193 
L 252.368983 227.402626 
" clip-path="url(#p3df18d23b7)" style="fill: none; stroke: #2ca02c; stroke-width: 1.5; stroke-linecap: square"/>
   </g>
   <g id="line2d_4">
    <path d="M 224.206037 67.080688 
L 226.654098 67.472936 
L 229.674231 69.047591 
L 226.617626 71.832082 
L 220.364053 63.458235 
L 229.29363 63.5105 
L 226.479518 75.948034 
L 220.737268 86.501239 
L 226.936961 72.721695 
L 225.356884 51.707805 
L 229.768077 57.755008 
L 233.413881 74.320717 
L 235.279043 76.307554 
L 218.694493 73.83276 
L 216.468527 75.971645 
L 222.630539 75.224191 
L 211.314571 59.651998 
L 228.237994 56.832304 
L 258.68346 62.904802 
L 254.604777 92.360681 
L 239.392108 82.645783 
L 219.584596 41.359464 
L 227.442569 54.13223 
L 219.893968 77.792329 
L 219.633757 49.352657 
L 232.377345 60.837865 
L 232.841502 70.774824 
L 225.730557 60.108378 
L 211.367047 74.563251 
L 214.0503 71.45498 
L 195.51465 70.950728 
L 229.698899 71.191466 
L 251.510567 66.352632 
L 230.520234 68.359417 
L 203.39974 74.975585 
L 219.243348 76.06112 
L 225.001234 63.966316 
L 215.794332 54.660509 
L 229.783208 70.234733 
L 231.633805 79.387281 
L 238.807877 97.181742 
L 248.738107 82.729431 
L 217.598499 73.310908 
L 226.048414 84.636843 
L 229.040142 85.821166 
L 216.531313 45.067439 
L 220.286663 52.872814 
L 198.503279 49.738788 
L 203.048282 55.375585 
L 231.457126 72.306481 
L 229.439921 47.894102 
L 237.803203 50.954773 
L 217.396971 70.345952 
L 222.544522 68.198796 
L 229.798177 73.954619 
L 208.240447 85.979806 
L 219.014805 79.867111 
L 233.612596 54.52772 
L 213.417753 66.775298 
L 211.428236 55.023307 
L 247.463695 78.998175 
L 253.625189 83.50595 
L 241.439384 64.246798 
L 196.612914 85.151783 
L 206.245556 82.157173 
L 225.699822 59.233994 
L 236.030948 56.871609 
L 238.884371 81.672065 
L 198.409344 75.076484 
L 200.353367 73.095835 
L 226.70791 62.264634 
L 252.870032 75.79323 
L 260.970608 76.826085 
L 232.053272 59.230265 
L 226.503274 61.244765 
L 214.973092 61.577396 
L 207.64594 38.832582 
L 221.247804 56.445775 
L 215.147641 80.466813 
L 219.616916 51.451264 
L 225.594568 55.97263 
L 225.516973 73.135685 
L 216.892305 67.624239 
L 216.363448 52.539299 
L 224.045308 56.473429 
L 222.707602 79.120619 
L 213.161249 75.668008 
L 196.88319 66.799279 
L 206.741526 52.70116 
L 234.184424 55.475279 
L 235.92977 72.429069 
L 228.641249 64.015432 
L 222.892401 84.345529 
L 223.395811 66.220379 
L 212.007868 59.736278 
L 211.559227 80.700951 
L 232.59396 65.464454 
L 238.476732 63.990954 
L 233.615977 85.974724 
L 189.398156 88.283442 
L 206.956265 63.378556 
" clip-path="url(#p3df18d23b7)" style="fill: none; stroke: #d62728; stroke-width: 1.5; stroke-linecap: square"/>
   </g>
  </g>
 </g>
 <defs>
  <clipPath id="p3df18d23b7">
   <rect x="7.2" y="7.2" width="265.854923" height="266.112"/>
  </clipPath>
 </defs>
</svg>
